M48
;DRILL file {KiCad 4.0.7-e2-6376~58~ubuntu16.04.1} date Fri Jun 29 12:06:57 2018
;FORMAT={-:-/ absolute / inch / decimal}
FMAT,2
INCH,TZ
T1C0.031
T2C0.039
T3C0.047
T4C0.059
T5C0.060
%
G90
G05
M72
T1
X6.811Y-2.4165
X6.811Y-2.7165
X8.7Y-1.9
X8.7Y-2.
X8.7Y-2.2
X8.7Y-2.5
X8.7Y-2.7
X8.7Y-3.
X8.7Y-3.2
X8.7Y-3.3
X8.7Y-3.4
X9.Y-1.9
X9.Y-2.
X9.Y-2.2
X9.Y-3.
X9.Y-3.2
X9.Y-3.3
X9.Y-3.4
X9.3Y-2.2
X9.3Y-3.
T2
X7.1Y-2.4
X7.2Y-2.4
X7.3Y-2.4
X9.3Y-2.45
X9.3Y-2.5484
X9.3Y-2.6469
X9.3Y-2.7453
T3
X7.0079Y-2.6772
X7.5984Y-2.6772
X7.9094Y-2.6
X8.5Y-2.6
T4
X6.7433Y-2.2429
X6.8Y-3.2
X7.6567Y-2.2429
X7.6898Y-3.2
T5
X8.1Y-2.075
X8.1Y-3.125
X8.3Y-2.075
X8.3Y-3.125
T0
M30
