G04 #@! TF.FileFunction,Legend,Top*
%FSLAX46Y46*%
G04 Gerber Fmt 4.6, Leading zero omitted, Abs format (unit mm)*
G04 Created by KiCad (PCBNEW 4.0.7-e2-6376~58~ubuntu16.04.1) date Fri Jun 29 12:06:55 2018*
%MOMM*%
%LPD*%
G01*
G04 APERTURE LIST*
%ADD10C,0.100000*%
%ADD11C,0.300000*%
%ADD12C,0.200000*%
%ADD13C,0.120000*%
%ADD14C,0.381000*%
%ADD15C,0.010000*%
%ADD16C,0.150000*%
G04 APERTURE END LIST*
D10*
D11*
X220955713Y-45041429D02*
X220955713Y-46541429D01*
X220455713Y-45470000D01*
X219955713Y-46541429D01*
X219955713Y-45041429D01*
X219312856Y-45470000D02*
X218598570Y-45470000D01*
X219455713Y-45041429D02*
X218955713Y-46541429D01*
X218455713Y-45041429D01*
X218098570Y-46541429D02*
X217098570Y-45041429D01*
X217098570Y-46541429D02*
X218098570Y-45041429D01*
X214741428Y-46041429D02*
X214741428Y-45041429D01*
X215098571Y-46612857D02*
X215455714Y-45541429D01*
X214527142Y-45541429D01*
X214027143Y-45470000D02*
X213312857Y-45470000D01*
X214170000Y-45041429D02*
X213670000Y-46541429D01*
X213170000Y-45041429D01*
X171038856Y-73846571D02*
X171324570Y-74846571D01*
X171610284Y-74132286D01*
X171895999Y-74846571D01*
X172181713Y-73846571D01*
X172610285Y-73846571D02*
X172895999Y-74846571D01*
X173181713Y-74132286D01*
X173467428Y-74846571D01*
X173753142Y-73846571D01*
X174181714Y-73846571D02*
X174467428Y-74846571D01*
X174753142Y-74132286D01*
X175038857Y-74846571D01*
X175324571Y-73846571D01*
X175896000Y-74703714D02*
X175967428Y-74775143D01*
X175896000Y-74846571D01*
X175824571Y-74775143D01*
X175896000Y-74703714D01*
X175896000Y-74846571D01*
X177253143Y-74775143D02*
X177110286Y-74846571D01*
X176824572Y-74846571D01*
X176681714Y-74775143D01*
X176610286Y-74703714D01*
X176538857Y-74560857D01*
X176538857Y-74132286D01*
X176610286Y-73989429D01*
X176681714Y-73918000D01*
X176824572Y-73846571D01*
X177110286Y-73846571D01*
X177253143Y-73918000D01*
X177896000Y-74846571D02*
X177896000Y-73846571D01*
X177896000Y-73346571D02*
X177824571Y-73418000D01*
X177896000Y-73489429D01*
X177967428Y-73418000D01*
X177896000Y-73346571D01*
X177896000Y-73489429D01*
X178396000Y-73846571D02*
X178967429Y-73846571D01*
X178610286Y-73346571D02*
X178610286Y-74632286D01*
X178681714Y-74775143D01*
X178824572Y-74846571D01*
X178967429Y-74846571D01*
X179324572Y-73846571D02*
X179681715Y-74846571D01*
X180038857Y-73846571D02*
X179681715Y-74846571D01*
X179538857Y-75203714D01*
X179467429Y-75275143D01*
X179324572Y-75346571D01*
X180610286Y-74846571D02*
X180610286Y-73346571D01*
X181253143Y-74846571D02*
X181253143Y-74060857D01*
X181181714Y-73918000D01*
X181038857Y-73846571D01*
X180824572Y-73846571D01*
X180681714Y-73918000D01*
X180610286Y-73989429D01*
X181824572Y-73846571D02*
X182181715Y-74846571D01*
X182538857Y-73846571D02*
X182181715Y-74846571D01*
X182038857Y-75203714D01*
X181967429Y-75275143D01*
X181824572Y-75346571D01*
X183753143Y-74846571D02*
X183753143Y-73346571D01*
X183753143Y-74775143D02*
X183610286Y-74846571D01*
X183324572Y-74846571D01*
X183181714Y-74775143D01*
X183110286Y-74703714D01*
X183038857Y-74560857D01*
X183038857Y-74132286D01*
X183110286Y-73989429D01*
X183181714Y-73918000D01*
X183324572Y-73846571D01*
X183610286Y-73846571D01*
X183753143Y-73918000D01*
X184467429Y-74846571D02*
X184467429Y-73846571D01*
X184467429Y-74132286D02*
X184538857Y-73989429D01*
X184610286Y-73918000D01*
X184753143Y-73846571D01*
X184896000Y-73846571D01*
X185610286Y-74846571D02*
X185467428Y-74775143D01*
X185396000Y-74703714D01*
X185324571Y-74560857D01*
X185324571Y-74132286D01*
X185396000Y-73989429D01*
X185467428Y-73918000D01*
X185610286Y-73846571D01*
X185824571Y-73846571D01*
X185967428Y-73918000D01*
X186038857Y-73989429D01*
X186110286Y-74132286D01*
X186110286Y-74560857D01*
X186038857Y-74703714D01*
X185967428Y-74775143D01*
X185824571Y-74846571D01*
X185610286Y-74846571D01*
X186753143Y-73846571D02*
X186753143Y-75346571D01*
X186753143Y-73918000D02*
X186896000Y-73846571D01*
X187181714Y-73846571D01*
X187324571Y-73918000D01*
X187396000Y-73989429D01*
X187467429Y-74132286D01*
X187467429Y-74560857D01*
X187396000Y-74703714D01*
X187324571Y-74775143D01*
X187181714Y-74846571D01*
X186896000Y-74846571D01*
X186753143Y-74775143D01*
X188324572Y-74846571D02*
X188181714Y-74775143D01*
X188110286Y-74703714D01*
X188038857Y-74560857D01*
X188038857Y-74132286D01*
X188110286Y-73989429D01*
X188181714Y-73918000D01*
X188324572Y-73846571D01*
X188538857Y-73846571D01*
X188681714Y-73918000D01*
X188753143Y-73989429D01*
X188824572Y-74132286D01*
X188824572Y-74560857D01*
X188753143Y-74703714D01*
X188681714Y-74775143D01*
X188538857Y-74846571D01*
X188324572Y-74846571D01*
X189467429Y-73846571D02*
X189467429Y-74846571D01*
X189467429Y-73989429D02*
X189538857Y-73918000D01*
X189681715Y-73846571D01*
X189896000Y-73846571D01*
X190038857Y-73918000D01*
X190110286Y-74060857D01*
X190110286Y-74846571D01*
X190824572Y-74846571D02*
X190824572Y-73846571D01*
X190824572Y-73346571D02*
X190753143Y-73418000D01*
X190824572Y-73489429D01*
X190896000Y-73418000D01*
X190824572Y-73346571D01*
X190824572Y-73489429D01*
X192181715Y-74775143D02*
X192038858Y-74846571D01*
X191753144Y-74846571D01*
X191610286Y-74775143D01*
X191538858Y-74703714D01*
X191467429Y-74560857D01*
X191467429Y-74132286D01*
X191538858Y-73989429D01*
X191610286Y-73918000D01*
X191753144Y-73846571D01*
X192038858Y-73846571D01*
X192181715Y-73918000D01*
X192753143Y-74775143D02*
X192896000Y-74846571D01*
X193181715Y-74846571D01*
X193324572Y-74775143D01*
X193396000Y-74632286D01*
X193396000Y-74560857D01*
X193324572Y-74418000D01*
X193181715Y-74346571D01*
X192967429Y-74346571D01*
X192824572Y-74275143D01*
X192753143Y-74132286D01*
X192753143Y-74060857D01*
X192824572Y-73918000D01*
X192967429Y-73846571D01*
X193181715Y-73846571D01*
X193324572Y-73918000D01*
X194038858Y-74703714D02*
X194110286Y-74775143D01*
X194038858Y-74846571D01*
X193967429Y-74775143D01*
X194038858Y-74703714D01*
X194038858Y-74846571D01*
X194753144Y-74846571D02*
X194753144Y-73346571D01*
X195396001Y-74846571D02*
X195396001Y-74060857D01*
X195324572Y-73918000D01*
X195181715Y-73846571D01*
X194967430Y-73846571D01*
X194824572Y-73918000D01*
X194753144Y-73989429D01*
X196110287Y-74846571D02*
X196110287Y-73346571D01*
X196253144Y-74275143D02*
X196681715Y-74846571D01*
X196681715Y-73846571D02*
X196110287Y-74418000D01*
X163156429Y-58638571D02*
X164656429Y-58638571D01*
X163942143Y-58638571D02*
X163942143Y-59495714D01*
X163156429Y-59495714D02*
X164656429Y-59495714D01*
X163156429Y-60210000D02*
X164656429Y-60210000D01*
X164585000Y-61710000D02*
X164656429Y-61567143D01*
X164656429Y-61352857D01*
X164585000Y-61138572D01*
X164442143Y-60995714D01*
X164299286Y-60924286D01*
X164013571Y-60852857D01*
X163799286Y-60852857D01*
X163513571Y-60924286D01*
X163370714Y-60995714D01*
X163227857Y-61138572D01*
X163156429Y-61352857D01*
X163156429Y-61495714D01*
X163227857Y-61710000D01*
X163299286Y-61781429D01*
X163799286Y-61781429D01*
X163799286Y-61495714D01*
X163156429Y-62424286D02*
X164656429Y-62424286D01*
X163942143Y-62424286D02*
X163942143Y-63281429D01*
X163156429Y-63281429D02*
X164656429Y-63281429D01*
X162106429Y-56424286D02*
X160606429Y-56924286D01*
X162106429Y-57424286D01*
X162106429Y-58210000D02*
X162106429Y-58495714D01*
X162035000Y-58638572D01*
X161892143Y-58781429D01*
X161606429Y-58852857D01*
X161106429Y-58852857D01*
X160820714Y-58781429D01*
X160677857Y-58638572D01*
X160606429Y-58495714D01*
X160606429Y-58210000D01*
X160677857Y-58067143D01*
X160820714Y-57924286D01*
X161106429Y-57852857D01*
X161606429Y-57852857D01*
X161892143Y-57924286D01*
X162035000Y-58067143D01*
X162106429Y-58210000D01*
X160606429Y-60210001D02*
X160606429Y-59495715D01*
X162106429Y-59495715D01*
X162106429Y-60495715D02*
X162106429Y-61352858D01*
X160606429Y-60924287D02*
X162106429Y-60924287D01*
X161035000Y-61781429D02*
X161035000Y-62495715D01*
X160606429Y-61638572D02*
X162106429Y-62138572D01*
X160606429Y-62638572D01*
X162035000Y-63924286D02*
X162106429Y-63781429D01*
X162106429Y-63567143D01*
X162035000Y-63352858D01*
X161892143Y-63210000D01*
X161749286Y-63138572D01*
X161463571Y-63067143D01*
X161249286Y-63067143D01*
X160963571Y-63138572D01*
X160820714Y-63210000D01*
X160677857Y-63352858D01*
X160606429Y-63567143D01*
X160606429Y-63710000D01*
X160677857Y-63924286D01*
X160749286Y-63995715D01*
X161249286Y-63995715D01*
X161249286Y-63710000D01*
X161392143Y-64638572D02*
X161392143Y-65138572D01*
X160606429Y-65352858D02*
X160606429Y-64638572D01*
X162106429Y-64638572D01*
X162106429Y-65352858D01*
X228981428Y-69100000D02*
X228838571Y-69028571D01*
X228624285Y-69028571D01*
X228410000Y-69100000D01*
X228267142Y-69242857D01*
X228195714Y-69385714D01*
X228124285Y-69671429D01*
X228124285Y-69885714D01*
X228195714Y-70171429D01*
X228267142Y-70314286D01*
X228410000Y-70457143D01*
X228624285Y-70528571D01*
X228767142Y-70528571D01*
X228981428Y-70457143D01*
X229052857Y-70385714D01*
X229052857Y-69885714D01*
X228767142Y-69885714D01*
X229695714Y-70528571D02*
X229695714Y-69028571D01*
X230552857Y-70528571D01*
X230552857Y-69028571D01*
X231267143Y-70528571D02*
X231267143Y-69028571D01*
X231624286Y-69028571D01*
X231838571Y-69100000D01*
X231981429Y-69242857D01*
X232052857Y-69385714D01*
X232124286Y-69671429D01*
X232124286Y-69885714D01*
X232052857Y-70171429D01*
X231981429Y-70314286D01*
X231838571Y-70457143D01*
X231624286Y-70528571D01*
X231267143Y-70528571D01*
X229695715Y-63948571D02*
X230695715Y-63948571D01*
X229695715Y-65448571D01*
X230695715Y-65448571D01*
X232124286Y-65305714D02*
X232052857Y-65377143D01*
X231838571Y-65448571D01*
X231695714Y-65448571D01*
X231481429Y-65377143D01*
X231338571Y-65234286D01*
X231267143Y-65091429D01*
X231195714Y-64805714D01*
X231195714Y-64591429D01*
X231267143Y-64305714D01*
X231338571Y-64162857D01*
X231481429Y-64020000D01*
X231695714Y-63948571D01*
X231838571Y-63948571D01*
X232052857Y-64020000D01*
X232124286Y-64091429D01*
X225695714Y-67917143D02*
X225910000Y-67988571D01*
X226267143Y-67988571D01*
X226410000Y-67917143D01*
X226481429Y-67845714D01*
X226552857Y-67702857D01*
X226552857Y-67560000D01*
X226481429Y-67417143D01*
X226410000Y-67345714D01*
X226267143Y-67274286D01*
X225981429Y-67202857D01*
X225838571Y-67131429D01*
X225767143Y-67060000D01*
X225695714Y-66917143D01*
X225695714Y-66774286D01*
X225767143Y-66631429D01*
X225838571Y-66560000D01*
X225981429Y-66488571D01*
X226338571Y-66488571D01*
X226552857Y-66560000D01*
X227195714Y-67988571D02*
X227195714Y-66988571D01*
X227195714Y-66488571D02*
X227124285Y-66560000D01*
X227195714Y-66631429D01*
X227267142Y-66560000D01*
X227195714Y-66488571D01*
X227195714Y-66631429D01*
X228552857Y-66988571D02*
X228552857Y-68202857D01*
X228481428Y-68345714D01*
X228410000Y-68417143D01*
X228267143Y-68488571D01*
X228052857Y-68488571D01*
X227910000Y-68417143D01*
X228552857Y-67917143D02*
X228410000Y-67988571D01*
X228124286Y-67988571D01*
X227981428Y-67917143D01*
X227910000Y-67845714D01*
X227838571Y-67702857D01*
X227838571Y-67274286D01*
X227910000Y-67131429D01*
X227981428Y-67060000D01*
X228124286Y-66988571D01*
X228410000Y-66988571D01*
X228552857Y-67060000D01*
X229267143Y-66988571D02*
X229267143Y-67988571D01*
X229267143Y-67131429D02*
X229338571Y-67060000D01*
X229481429Y-66988571D01*
X229695714Y-66988571D01*
X229838571Y-67060000D01*
X229910000Y-67202857D01*
X229910000Y-67988571D01*
X231267143Y-67988571D02*
X231267143Y-67202857D01*
X231195714Y-67060000D01*
X231052857Y-66988571D01*
X230767143Y-66988571D01*
X230624286Y-67060000D01*
X231267143Y-67917143D02*
X231124286Y-67988571D01*
X230767143Y-67988571D01*
X230624286Y-67917143D01*
X230552857Y-67774286D01*
X230552857Y-67631429D01*
X230624286Y-67488571D01*
X230767143Y-67417143D01*
X231124286Y-67417143D01*
X231267143Y-67345714D01*
X232195715Y-67988571D02*
X232052857Y-67917143D01*
X231981429Y-67774286D01*
X231981429Y-66488571D01*
X228267143Y-61408571D02*
X228767143Y-62908571D01*
X229267143Y-61408571D01*
X230624286Y-62765714D02*
X230552857Y-62837143D01*
X230338571Y-62908571D01*
X230195714Y-62908571D01*
X229981429Y-62837143D01*
X229838571Y-62694286D01*
X229767143Y-62551429D01*
X229695714Y-62265714D01*
X229695714Y-62051429D01*
X229767143Y-61765714D01*
X229838571Y-61622857D01*
X229981429Y-61480000D01*
X230195714Y-61408571D01*
X230338571Y-61408571D01*
X230552857Y-61480000D01*
X230624286Y-61551429D01*
X232124286Y-62765714D02*
X232052857Y-62837143D01*
X231838571Y-62908571D01*
X231695714Y-62908571D01*
X231481429Y-62837143D01*
X231338571Y-62694286D01*
X231267143Y-62551429D01*
X231195714Y-62265714D01*
X231195714Y-62051429D01*
X231267143Y-61765714D01*
X231338571Y-61622857D01*
X231481429Y-61480000D01*
X231695714Y-61408571D01*
X231838571Y-61408571D01*
X232052857Y-61480000D01*
X232124286Y-61551429D01*
X205311429Y-45128571D02*
X205311429Y-43628571D01*
X206168572Y-45128571D01*
X206168572Y-43628571D01*
X210355714Y-43771429D02*
X211070000Y-43771429D01*
X211070000Y-45271429D01*
X211065714Y-45676429D02*
X211065714Y-47176429D01*
X210494286Y-47176429D01*
X210351428Y-47105000D01*
X210280000Y-47033571D01*
X210208571Y-46890714D01*
X210208571Y-46676429D01*
X210280000Y-46533571D01*
X210351428Y-46462143D01*
X210494286Y-46390714D01*
X211065714Y-46390714D01*
X209565714Y-47176429D02*
X209565714Y-45962143D01*
X209494286Y-45819286D01*
X209422857Y-45747857D01*
X209280000Y-45676429D01*
X208994286Y-45676429D01*
X208851428Y-45747857D01*
X208780000Y-45819286D01*
X208708571Y-45962143D01*
X208708571Y-47176429D01*
X207994285Y-45676429D02*
X207994285Y-47176429D01*
X207494285Y-46105000D01*
X206994285Y-47176429D01*
X206994285Y-45676429D01*
X206279999Y-45676429D02*
X206279999Y-47176429D01*
X205708571Y-47176429D01*
X205565713Y-47105000D01*
X205494285Y-47033571D01*
X205422856Y-46890714D01*
X205422856Y-46676429D01*
X205494285Y-46533571D01*
X205565713Y-46462143D01*
X205708571Y-46390714D01*
X206279999Y-46390714D01*
X211284286Y-88308571D02*
X210570000Y-88308571D01*
X210570000Y-86808571D01*
X205311429Y-88308571D02*
X205311429Y-86808571D01*
X206168572Y-88308571D01*
X206168572Y-86808571D01*
X205458571Y-85975000D02*
X206172857Y-85975000D01*
X205315714Y-86403571D02*
X205815714Y-84903571D01*
X206315714Y-86403571D01*
X207672857Y-86260714D02*
X207601428Y-86332143D01*
X207387142Y-86403571D01*
X207244285Y-86403571D01*
X207030000Y-86332143D01*
X206887142Y-86189286D01*
X206815714Y-86046429D01*
X206744285Y-85760714D01*
X206744285Y-85546429D01*
X206815714Y-85260714D01*
X206887142Y-85117857D01*
X207030000Y-84975000D01*
X207244285Y-84903571D01*
X207387142Y-84903571D01*
X207601428Y-84975000D01*
X207672857Y-85046429D01*
X209458571Y-86403571D02*
X209458571Y-84903571D01*
X210172857Y-86403571D02*
X210172857Y-84903571D01*
X211030000Y-86403571D01*
X211030000Y-84903571D01*
D12*
X224155000Y-88900000D02*
X224155000Y-43180000D01*
X159385000Y-88900000D02*
X224155000Y-88900000D01*
X159385000Y-43180000D02*
X159385000Y-88900000D01*
X224155000Y-43180000D02*
X159385000Y-43180000D01*
X158750000Y-42545000D02*
X224790000Y-42545000D01*
X158750000Y-89535000D02*
X158750000Y-42545000D01*
X224790000Y-89535000D02*
X158750000Y-89535000D01*
X224790000Y-42545000D02*
X224790000Y-89535000D01*
X238760000Y-45720000D02*
G75*
G03X238760000Y-45720000I-3810000J0D01*
G01*
X238760000Y-86360000D02*
G75*
G03X238760000Y-86360000I-3810000J0D01*
G01*
X165735000Y-45720000D02*
G75*
G03X165735000Y-45720000I-3810000J0D01*
G01*
X165735000Y-86360000D02*
G75*
G03X165735000Y-86360000I-3810000J0D01*
G01*
D13*
X177760000Y-58340000D02*
X188000000Y-58340000D01*
X177760000Y-62981000D02*
X188000000Y-62981000D01*
X177760000Y-58340000D02*
X177760000Y-62981000D01*
X188000000Y-58340000D02*
X188000000Y-62981000D01*
X177760000Y-59850000D02*
X188000000Y-59850000D01*
X181030000Y-58340000D02*
X181030000Y-59850000D01*
X184731000Y-58340000D02*
X184731000Y-59850000D01*
X235620000Y-56860000D02*
X235620000Y-57190000D01*
X235620000Y-57190000D02*
X229200000Y-57190000D01*
X229200000Y-57190000D02*
X229200000Y-56860000D01*
X235620000Y-54900000D02*
X235620000Y-54570000D01*
X235620000Y-54570000D02*
X229200000Y-54570000D01*
X229200000Y-54570000D02*
X229200000Y-54900000D01*
X221960000Y-56480000D02*
X222290000Y-56480000D01*
X222290000Y-56480000D02*
X222290000Y-62900000D01*
X222290000Y-62900000D02*
X221960000Y-62900000D01*
X220000000Y-56480000D02*
X219670000Y-56480000D01*
X219670000Y-56480000D02*
X219670000Y-62900000D01*
X219670000Y-62900000D02*
X220000000Y-62900000D01*
X235620000Y-77180000D02*
X235620000Y-77510000D01*
X235620000Y-77510000D02*
X229200000Y-77510000D01*
X229200000Y-77510000D02*
X229200000Y-77180000D01*
X235620000Y-75220000D02*
X235620000Y-74890000D01*
X235620000Y-74890000D02*
X229200000Y-74890000D01*
X229200000Y-74890000D02*
X229200000Y-75220000D01*
X220000000Y-75600000D02*
X219670000Y-75600000D01*
X219670000Y-75600000D02*
X219670000Y-69180000D01*
X219670000Y-69180000D02*
X220000000Y-69180000D01*
X221960000Y-75600000D02*
X222290000Y-75600000D01*
X222290000Y-75600000D02*
X222290000Y-69180000D01*
X222290000Y-69180000D02*
X221960000Y-69180000D01*
X225790000Y-46930000D02*
G75*
G02X223790000Y-46930000I-1000000J0D01*
G01*
X223790000Y-46930000D02*
X222140000Y-46930000D01*
X222140000Y-46930000D02*
X222140000Y-52130000D01*
X222140000Y-52130000D02*
X227440000Y-52130000D01*
X227440000Y-52130000D02*
X227440000Y-46930000D01*
X227440000Y-46930000D02*
X225790000Y-46930000D01*
X223790000Y-87690000D02*
G75*
G02X225790000Y-87690000I1000000J0D01*
G01*
X225790000Y-87690000D02*
X227440000Y-87690000D01*
X227440000Y-87690000D02*
X227440000Y-79950000D01*
X227440000Y-79950000D02*
X222140000Y-79950000D01*
X222140000Y-79950000D02*
X222140000Y-87690000D01*
X222140000Y-87690000D02*
X223790000Y-87690000D01*
X238670000Y-59680000D02*
X232720000Y-59680000D01*
X232720000Y-59680000D02*
X232720000Y-72280000D01*
X232720000Y-72280000D02*
X238670000Y-72280000D01*
X238670000Y-72280000D02*
X238670000Y-59680000D01*
X238670000Y-62980000D02*
X237920000Y-62980000D01*
X237920000Y-62980000D02*
X237920000Y-68980000D01*
X237920000Y-68980000D02*
X238670000Y-68980000D01*
X238670000Y-68980000D02*
X238670000Y-62980000D01*
X238670000Y-59680000D02*
X237920000Y-59680000D01*
X237920000Y-59680000D02*
X237920000Y-61480000D01*
X237920000Y-61480000D02*
X238670000Y-61480000D01*
X238670000Y-61480000D02*
X238670000Y-59680000D01*
X238670000Y-70480000D02*
X237920000Y-70480000D01*
X237920000Y-70480000D02*
X237920000Y-72280000D01*
X237920000Y-72280000D02*
X238670000Y-72280000D01*
X238670000Y-72280000D02*
X238670000Y-70480000D01*
X236420000Y-59680000D02*
X236420000Y-60430000D01*
X236420000Y-60430000D02*
X233470000Y-60430000D01*
X233470000Y-60430000D02*
X233470000Y-65980000D01*
X236420000Y-72280000D02*
X236420000Y-71530000D01*
X236420000Y-71530000D02*
X233470000Y-71530000D01*
X233470000Y-71530000D02*
X233470000Y-65980000D01*
X238970000Y-61880000D02*
X238970000Y-59380000D01*
X238970000Y-59380000D02*
X236470000Y-59380000D01*
X172020000Y-68400000D02*
X171690000Y-68400000D01*
X171690000Y-68400000D02*
X171690000Y-61980000D01*
X171690000Y-61980000D02*
X172020000Y-61980000D01*
X173980000Y-68400000D02*
X174310000Y-68400000D01*
X174310000Y-68400000D02*
X174310000Y-61980000D01*
X174310000Y-61980000D02*
X173980000Y-61980000D01*
D14*
X161630360Y-74432160D02*
X164729160Y-75631040D01*
X164729160Y-75631040D02*
X164330380Y-75031600D01*
X163629340Y-74030840D02*
X166430960Y-75331320D01*
X161630360Y-74432160D02*
X162328860Y-75031600D01*
X166629080Y-74830940D02*
X163629340Y-74030840D01*
X163629340Y-74030840D02*
X164429440Y-75229720D01*
X164429440Y-75229720D02*
X161630360Y-74432160D01*
X161630360Y-74432160D02*
X162529520Y-74330560D01*
X168021000Y-74930000D02*
X161036000Y-79629000D01*
X161036000Y-79629000D02*
X161036000Y-70231000D01*
X161036000Y-70231000D02*
X168021000Y-74930000D01*
D15*
G36*
X215007241Y-78177184D02*
X215033753Y-78190282D01*
X215066447Y-78213106D01*
X215090275Y-78237996D01*
X215106594Y-78269249D01*
X215116760Y-78311166D01*
X215122128Y-78368044D01*
X215124056Y-78444184D01*
X215124169Y-78476917D01*
X215123839Y-78548656D01*
X215122473Y-78599927D01*
X215119500Y-78635404D01*
X215114351Y-78659763D01*
X215106457Y-78677680D01*
X215098243Y-78689902D01*
X215045813Y-78741905D01*
X214984070Y-78773184D01*
X214917464Y-78782592D01*
X214850442Y-78768980D01*
X214829208Y-78759354D01*
X214778376Y-78732859D01*
X214778376Y-79148052D01*
X214815475Y-79128868D01*
X214864357Y-79114025D01*
X214924439Y-79110222D01*
X214984436Y-79117243D01*
X215029744Y-79133013D01*
X215067325Y-79163047D01*
X215099436Y-79206024D01*
X215101850Y-79210436D01*
X215112033Y-79231221D01*
X215119470Y-79252170D01*
X215124589Y-79277548D01*
X215127819Y-79311618D01*
X215129587Y-79358641D01*
X215130323Y-79422882D01*
X215130456Y-79495176D01*
X215130456Y-79725822D01*
X214992139Y-79725822D01*
X214992139Y-79300533D01*
X214953451Y-79267979D01*
X214913262Y-79241940D01*
X214875203Y-79237205D01*
X214836934Y-79249389D01*
X214816538Y-79261320D01*
X214801358Y-79278313D01*
X214790562Y-79303995D01*
X214783317Y-79341991D01*
X214778792Y-79395926D01*
X214776156Y-79469425D01*
X214775228Y-79518347D01*
X214772089Y-79719535D01*
X214706074Y-79723336D01*
X214640060Y-79727136D01*
X214640060Y-78478650D01*
X214778376Y-78478650D01*
X214781903Y-78548254D01*
X214793785Y-78596569D01*
X214815980Y-78626631D01*
X214850441Y-78641471D01*
X214885258Y-78644436D01*
X214924671Y-78641028D01*
X214950829Y-78627617D01*
X214967186Y-78609896D01*
X214980063Y-78590835D01*
X214987728Y-78569601D01*
X214991139Y-78539849D01*
X214991251Y-78495236D01*
X214990103Y-78457880D01*
X214987468Y-78401604D01*
X214983544Y-78364658D01*
X214976937Y-78341223D01*
X214966251Y-78325480D01*
X214956167Y-78316380D01*
X214914030Y-78296537D01*
X214864160Y-78293332D01*
X214835524Y-78300168D01*
X214807172Y-78324464D01*
X214788391Y-78371728D01*
X214779288Y-78441624D01*
X214778376Y-78478650D01*
X214640060Y-78478650D01*
X214640060Y-78166614D01*
X214709218Y-78166614D01*
X214750740Y-78168256D01*
X214772162Y-78174087D01*
X214778374Y-78185461D01*
X214778376Y-78185798D01*
X214781258Y-78196938D01*
X214793970Y-78195673D01*
X214819243Y-78183433D01*
X214878131Y-78164707D01*
X214944385Y-78162739D01*
X215007241Y-78177184D01*
X215007241Y-78177184D01*
G37*
X215007241Y-78177184D02*
X215033753Y-78190282D01*
X215066447Y-78213106D01*
X215090275Y-78237996D01*
X215106594Y-78269249D01*
X215116760Y-78311166D01*
X215122128Y-78368044D01*
X215124056Y-78444184D01*
X215124169Y-78476917D01*
X215123839Y-78548656D01*
X215122473Y-78599927D01*
X215119500Y-78635404D01*
X215114351Y-78659763D01*
X215106457Y-78677680D01*
X215098243Y-78689902D01*
X215045813Y-78741905D01*
X214984070Y-78773184D01*
X214917464Y-78782592D01*
X214850442Y-78768980D01*
X214829208Y-78759354D01*
X214778376Y-78732859D01*
X214778376Y-79148052D01*
X214815475Y-79128868D01*
X214864357Y-79114025D01*
X214924439Y-79110222D01*
X214984436Y-79117243D01*
X215029744Y-79133013D01*
X215067325Y-79163047D01*
X215099436Y-79206024D01*
X215101850Y-79210436D01*
X215112033Y-79231221D01*
X215119470Y-79252170D01*
X215124589Y-79277548D01*
X215127819Y-79311618D01*
X215129587Y-79358641D01*
X215130323Y-79422882D01*
X215130456Y-79495176D01*
X215130456Y-79725822D01*
X214992139Y-79725822D01*
X214992139Y-79300533D01*
X214953451Y-79267979D01*
X214913262Y-79241940D01*
X214875203Y-79237205D01*
X214836934Y-79249389D01*
X214816538Y-79261320D01*
X214801358Y-79278313D01*
X214790562Y-79303995D01*
X214783317Y-79341991D01*
X214778792Y-79395926D01*
X214776156Y-79469425D01*
X214775228Y-79518347D01*
X214772089Y-79719535D01*
X214706074Y-79723336D01*
X214640060Y-79727136D01*
X214640060Y-78478650D01*
X214778376Y-78478650D01*
X214781903Y-78548254D01*
X214793785Y-78596569D01*
X214815980Y-78626631D01*
X214850441Y-78641471D01*
X214885258Y-78644436D01*
X214924671Y-78641028D01*
X214950829Y-78627617D01*
X214967186Y-78609896D01*
X214980063Y-78590835D01*
X214987728Y-78569601D01*
X214991139Y-78539849D01*
X214991251Y-78495236D01*
X214990103Y-78457880D01*
X214987468Y-78401604D01*
X214983544Y-78364658D01*
X214976937Y-78341223D01*
X214966251Y-78325480D01*
X214956167Y-78316380D01*
X214914030Y-78296537D01*
X214864160Y-78293332D01*
X214835524Y-78300168D01*
X214807172Y-78324464D01*
X214788391Y-78371728D01*
X214779288Y-78441624D01*
X214778376Y-78478650D01*
X214640060Y-78478650D01*
X214640060Y-78166614D01*
X214709218Y-78166614D01*
X214750740Y-78168256D01*
X214772162Y-78174087D01*
X214778374Y-78185461D01*
X214778376Y-78185798D01*
X214781258Y-78196938D01*
X214793970Y-78195673D01*
X214819243Y-78183433D01*
X214878131Y-78164707D01*
X214944385Y-78162739D01*
X215007241Y-78177184D01*
G36*
X215531790Y-79114555D02*
X215590945Y-79130339D01*
X215635977Y-79158948D01*
X215667754Y-79196419D01*
X215677634Y-79212411D01*
X215684927Y-79229163D01*
X215690026Y-79250592D01*
X215693321Y-79280616D01*
X215695203Y-79323154D01*
X215696063Y-79382122D01*
X215696293Y-79461440D01*
X215696297Y-79482484D01*
X215696297Y-79725822D01*
X215635941Y-79725822D01*
X215597443Y-79723126D01*
X215568977Y-79716295D01*
X215561845Y-79712083D01*
X215542348Y-79704813D01*
X215522434Y-79712083D01*
X215489647Y-79721160D01*
X215442022Y-79724813D01*
X215389236Y-79723228D01*
X215340964Y-79716589D01*
X215312782Y-79708072D01*
X215258247Y-79673063D01*
X215224165Y-79624479D01*
X215208843Y-79559882D01*
X215208701Y-79558223D01*
X215210045Y-79529566D01*
X215331644Y-79529566D01*
X215342274Y-79562161D01*
X215359590Y-79580505D01*
X215394348Y-79594379D01*
X215440227Y-79599917D01*
X215487012Y-79597191D01*
X215524486Y-79586274D01*
X215534985Y-79579269D01*
X215553332Y-79546904D01*
X215557980Y-79510111D01*
X215557980Y-79461763D01*
X215488418Y-79461763D01*
X215422333Y-79466850D01*
X215372236Y-79481263D01*
X215341071Y-79503729D01*
X215331644Y-79529566D01*
X215210045Y-79529566D01*
X215212013Y-79487647D01*
X215235290Y-79431845D01*
X215279052Y-79389647D01*
X215285101Y-79385808D01*
X215311093Y-79373309D01*
X215343265Y-79365740D01*
X215388240Y-79362061D01*
X215441669Y-79361216D01*
X215557980Y-79361169D01*
X215557980Y-79312411D01*
X215553047Y-79274581D01*
X215540457Y-79249236D01*
X215538983Y-79247887D01*
X215510966Y-79236800D01*
X215468674Y-79232503D01*
X215421936Y-79234615D01*
X215380582Y-79242756D01*
X215356043Y-79254965D01*
X215342747Y-79264746D01*
X215328706Y-79266613D01*
X215309329Y-79258600D01*
X215280024Y-79238739D01*
X215236197Y-79205063D01*
X215232175Y-79201909D01*
X215234236Y-79190236D01*
X215251432Y-79170822D01*
X215277567Y-79149248D01*
X215306448Y-79131096D01*
X215315522Y-79126809D01*
X215348620Y-79118256D01*
X215397120Y-79112155D01*
X215451305Y-79109708D01*
X215453839Y-79109703D01*
X215531790Y-79114555D01*
X215531790Y-79114555D01*
G37*
X215531790Y-79114555D02*
X215590945Y-79130339D01*
X215635977Y-79158948D01*
X215667754Y-79196419D01*
X215677634Y-79212411D01*
X215684927Y-79229163D01*
X215690026Y-79250592D01*
X215693321Y-79280616D01*
X215695203Y-79323154D01*
X215696063Y-79382122D01*
X215696293Y-79461440D01*
X215696297Y-79482484D01*
X215696297Y-79725822D01*
X215635941Y-79725822D01*
X215597443Y-79723126D01*
X215568977Y-79716295D01*
X215561845Y-79712083D01*
X215542348Y-79704813D01*
X215522434Y-79712083D01*
X215489647Y-79721160D01*
X215442022Y-79724813D01*
X215389236Y-79723228D01*
X215340964Y-79716589D01*
X215312782Y-79708072D01*
X215258247Y-79673063D01*
X215224165Y-79624479D01*
X215208843Y-79559882D01*
X215208701Y-79558223D01*
X215210045Y-79529566D01*
X215331644Y-79529566D01*
X215342274Y-79562161D01*
X215359590Y-79580505D01*
X215394348Y-79594379D01*
X215440227Y-79599917D01*
X215487012Y-79597191D01*
X215524486Y-79586274D01*
X215534985Y-79579269D01*
X215553332Y-79546904D01*
X215557980Y-79510111D01*
X215557980Y-79461763D01*
X215488418Y-79461763D01*
X215422333Y-79466850D01*
X215372236Y-79481263D01*
X215341071Y-79503729D01*
X215331644Y-79529566D01*
X215210045Y-79529566D01*
X215212013Y-79487647D01*
X215235290Y-79431845D01*
X215279052Y-79389647D01*
X215285101Y-79385808D01*
X215311093Y-79373309D01*
X215343265Y-79365740D01*
X215388240Y-79362061D01*
X215441669Y-79361216D01*
X215557980Y-79361169D01*
X215557980Y-79312411D01*
X215553047Y-79274581D01*
X215540457Y-79249236D01*
X215538983Y-79247887D01*
X215510966Y-79236800D01*
X215468674Y-79232503D01*
X215421936Y-79234615D01*
X215380582Y-79242756D01*
X215356043Y-79254965D01*
X215342747Y-79264746D01*
X215328706Y-79266613D01*
X215309329Y-79258600D01*
X215280024Y-79238739D01*
X215236197Y-79205063D01*
X215232175Y-79201909D01*
X215234236Y-79190236D01*
X215251432Y-79170822D01*
X215277567Y-79149248D01*
X215306448Y-79131096D01*
X215315522Y-79126809D01*
X215348620Y-79118256D01*
X215397120Y-79112155D01*
X215451305Y-79109708D01*
X215453839Y-79109703D01*
X215531790Y-79114555D01*
G36*
X215922644Y-79111020D02*
X215941461Y-79116660D01*
X215947527Y-79129053D01*
X215947782Y-79134647D01*
X215948871Y-79150230D01*
X215956368Y-79152676D01*
X215976619Y-79141993D01*
X215988649Y-79134694D01*
X216026600Y-79119063D01*
X216071928Y-79111334D01*
X216119456Y-79110740D01*
X216164005Y-79116513D01*
X216200398Y-79127884D01*
X216223457Y-79144088D01*
X216228004Y-79164355D01*
X216225709Y-79169843D01*
X216208980Y-79192626D01*
X216183037Y-79220647D01*
X216178345Y-79225177D01*
X216153617Y-79246005D01*
X216132282Y-79252735D01*
X216102445Y-79248038D01*
X216090492Y-79244917D01*
X216053295Y-79237421D01*
X216027141Y-79240792D01*
X216005054Y-79252681D01*
X215984822Y-79268635D01*
X215969921Y-79288700D01*
X215959566Y-79316702D01*
X215952971Y-79356467D01*
X215949351Y-79411823D01*
X215947922Y-79486594D01*
X215947782Y-79531740D01*
X215947782Y-79725822D01*
X215822040Y-79725822D01*
X215822040Y-79109683D01*
X215884911Y-79109683D01*
X215922644Y-79111020D01*
X215922644Y-79111020D01*
G37*
X215922644Y-79111020D02*
X215941461Y-79116660D01*
X215947527Y-79129053D01*
X215947782Y-79134647D01*
X215948871Y-79150230D01*
X215956368Y-79152676D01*
X215976619Y-79141993D01*
X215988649Y-79134694D01*
X216026600Y-79119063D01*
X216071928Y-79111334D01*
X216119456Y-79110740D01*
X216164005Y-79116513D01*
X216200398Y-79127884D01*
X216223457Y-79144088D01*
X216228004Y-79164355D01*
X216225709Y-79169843D01*
X216208980Y-79192626D01*
X216183037Y-79220647D01*
X216178345Y-79225177D01*
X216153617Y-79246005D01*
X216132282Y-79252735D01*
X216102445Y-79248038D01*
X216090492Y-79244917D01*
X216053295Y-79237421D01*
X216027141Y-79240792D01*
X216005054Y-79252681D01*
X215984822Y-79268635D01*
X215969921Y-79288700D01*
X215959566Y-79316702D01*
X215952971Y-79356467D01*
X215949351Y-79411823D01*
X215947922Y-79486594D01*
X215947782Y-79531740D01*
X215947782Y-79725822D01*
X215822040Y-79725822D01*
X215822040Y-79109683D01*
X215884911Y-79109683D01*
X215922644Y-79111020D01*
G36*
X216714812Y-79725822D02*
X216645654Y-79725822D01*
X216605512Y-79724645D01*
X216584606Y-79719772D01*
X216577078Y-79709186D01*
X216576495Y-79702029D01*
X216575226Y-79687676D01*
X216567221Y-79684923D01*
X216546185Y-79693771D01*
X216529827Y-79702029D01*
X216467023Y-79721597D01*
X216398752Y-79722729D01*
X216343248Y-79708135D01*
X216291562Y-79672877D01*
X216252162Y-79620835D01*
X216230587Y-79559450D01*
X216230038Y-79556018D01*
X216226833Y-79518571D01*
X216225239Y-79464813D01*
X216225367Y-79424155D01*
X216362721Y-79424155D01*
X216365903Y-79478194D01*
X216373141Y-79522735D01*
X216382940Y-79547888D01*
X216420011Y-79582260D01*
X216464026Y-79594582D01*
X216509416Y-79584618D01*
X216548203Y-79554895D01*
X216562892Y-79534905D01*
X216571481Y-79511050D01*
X216575504Y-79476230D01*
X216576495Y-79423930D01*
X216574722Y-79372139D01*
X216570037Y-79326634D01*
X216563397Y-79296181D01*
X216562290Y-79293452D01*
X216535509Y-79261000D01*
X216496421Y-79243183D01*
X216452685Y-79240306D01*
X216411962Y-79252674D01*
X216381913Y-79280593D01*
X216378796Y-79286148D01*
X216369039Y-79320022D01*
X216363723Y-79368728D01*
X216362721Y-79424155D01*
X216225367Y-79424155D01*
X216225432Y-79403540D01*
X216226336Y-79370563D01*
X216232486Y-79288981D01*
X216245267Y-79227730D01*
X216266529Y-79182449D01*
X216298122Y-79148779D01*
X216328793Y-79129014D01*
X216371646Y-79115120D01*
X216424944Y-79110354D01*
X216479520Y-79114236D01*
X216526208Y-79126282D01*
X216550876Y-79140693D01*
X216576495Y-79163878D01*
X216576495Y-78870773D01*
X216714812Y-78870773D01*
X216714812Y-79725822D01*
X216714812Y-79725822D01*
G37*
X216714812Y-79725822D02*
X216645654Y-79725822D01*
X216605512Y-79724645D01*
X216584606Y-79719772D01*
X216577078Y-79709186D01*
X216576495Y-79702029D01*
X216575226Y-79687676D01*
X216567221Y-79684923D01*
X216546185Y-79693771D01*
X216529827Y-79702029D01*
X216467023Y-79721597D01*
X216398752Y-79722729D01*
X216343248Y-79708135D01*
X216291562Y-79672877D01*
X216252162Y-79620835D01*
X216230587Y-79559450D01*
X216230038Y-79556018D01*
X216226833Y-79518571D01*
X216225239Y-79464813D01*
X216225367Y-79424155D01*
X216362721Y-79424155D01*
X216365903Y-79478194D01*
X216373141Y-79522735D01*
X216382940Y-79547888D01*
X216420011Y-79582260D01*
X216464026Y-79594582D01*
X216509416Y-79584618D01*
X216548203Y-79554895D01*
X216562892Y-79534905D01*
X216571481Y-79511050D01*
X216575504Y-79476230D01*
X216576495Y-79423930D01*
X216574722Y-79372139D01*
X216570037Y-79326634D01*
X216563397Y-79296181D01*
X216562290Y-79293452D01*
X216535509Y-79261000D01*
X216496421Y-79243183D01*
X216452685Y-79240306D01*
X216411962Y-79252674D01*
X216381913Y-79280593D01*
X216378796Y-79286148D01*
X216369039Y-79320022D01*
X216363723Y-79368728D01*
X216362721Y-79424155D01*
X216225367Y-79424155D01*
X216225432Y-79403540D01*
X216226336Y-79370563D01*
X216232486Y-79288981D01*
X216245267Y-79227730D01*
X216266529Y-79182449D01*
X216298122Y-79148779D01*
X216328793Y-79129014D01*
X216371646Y-79115120D01*
X216424944Y-79110354D01*
X216479520Y-79114236D01*
X216526208Y-79126282D01*
X216550876Y-79140693D01*
X216576495Y-79163878D01*
X216576495Y-78870773D01*
X216714812Y-78870773D01*
X216714812Y-79725822D01*
G36*
X217197524Y-79112237D02*
X217247255Y-79115971D01*
X217377291Y-79505773D01*
X217397678Y-79436614D01*
X217409946Y-79393874D01*
X217426085Y-79336115D01*
X217443512Y-79272625D01*
X217452726Y-79238570D01*
X217487388Y-79109683D01*
X217630391Y-79109683D01*
X217587646Y-79244857D01*
X217566596Y-79311342D01*
X217541167Y-79391539D01*
X217514610Y-79475193D01*
X217490902Y-79549782D01*
X217436902Y-79719535D01*
X217378598Y-79723328D01*
X217320295Y-79727122D01*
X217288679Y-79622734D01*
X217269182Y-79557889D01*
X217247904Y-79486400D01*
X217229308Y-79423263D01*
X217228574Y-79420750D01*
X217214684Y-79377969D01*
X217202429Y-79348779D01*
X217193846Y-79337741D01*
X217192082Y-79339018D01*
X217185891Y-79356130D01*
X217174128Y-79392787D01*
X217158225Y-79444378D01*
X217139614Y-79506294D01*
X217129543Y-79540352D01*
X217075007Y-79725822D01*
X216959264Y-79725822D01*
X216866737Y-79433471D01*
X216840744Y-79351462D01*
X216817066Y-79276987D01*
X216796820Y-79213544D01*
X216781126Y-79164632D01*
X216771102Y-79133749D01*
X216768055Y-79124726D01*
X216770467Y-79115487D01*
X216789408Y-79111441D01*
X216828823Y-79111846D01*
X216834993Y-79112152D01*
X216908086Y-79115971D01*
X216955957Y-79292010D01*
X216973553Y-79356211D01*
X216989277Y-79412649D01*
X217001746Y-79456422D01*
X217009574Y-79482630D01*
X217011020Y-79486903D01*
X217017014Y-79481990D01*
X217029101Y-79456532D01*
X217045893Y-79413997D01*
X217066003Y-79357850D01*
X217083003Y-79307130D01*
X217147794Y-79108504D01*
X217197524Y-79112237D01*
X217197524Y-79112237D01*
G37*
X217197524Y-79112237D02*
X217247255Y-79115971D01*
X217377291Y-79505773D01*
X217397678Y-79436614D01*
X217409946Y-79393874D01*
X217426085Y-79336115D01*
X217443512Y-79272625D01*
X217452726Y-79238570D01*
X217487388Y-79109683D01*
X217630391Y-79109683D01*
X217587646Y-79244857D01*
X217566596Y-79311342D01*
X217541167Y-79391539D01*
X217514610Y-79475193D01*
X217490902Y-79549782D01*
X217436902Y-79719535D01*
X217378598Y-79723328D01*
X217320295Y-79727122D01*
X217288679Y-79622734D01*
X217269182Y-79557889D01*
X217247904Y-79486400D01*
X217229308Y-79423263D01*
X217228574Y-79420750D01*
X217214684Y-79377969D01*
X217202429Y-79348779D01*
X217193846Y-79337741D01*
X217192082Y-79339018D01*
X217185891Y-79356130D01*
X217174128Y-79392787D01*
X217158225Y-79444378D01*
X217139614Y-79506294D01*
X217129543Y-79540352D01*
X217075007Y-79725822D01*
X216959264Y-79725822D01*
X216866737Y-79433471D01*
X216840744Y-79351462D01*
X216817066Y-79276987D01*
X216796820Y-79213544D01*
X216781126Y-79164632D01*
X216771102Y-79133749D01*
X216768055Y-79124726D01*
X216770467Y-79115487D01*
X216789408Y-79111441D01*
X216828823Y-79111846D01*
X216834993Y-79112152D01*
X216908086Y-79115971D01*
X216955957Y-79292010D01*
X216973553Y-79356211D01*
X216989277Y-79412649D01*
X217001746Y-79456422D01*
X217009574Y-79482630D01*
X217011020Y-79486903D01*
X217017014Y-79481990D01*
X217029101Y-79456532D01*
X217045893Y-79413997D01*
X217066003Y-79357850D01*
X217083003Y-79307130D01*
X217147794Y-79108504D01*
X217197524Y-79112237D01*
G36*
X217954411Y-79113417D02*
X218007411Y-79126290D01*
X218022731Y-79133110D01*
X218052428Y-79150974D01*
X218075220Y-79171093D01*
X218092083Y-79196962D01*
X218103998Y-79232073D01*
X218111942Y-79279920D01*
X218116894Y-79343996D01*
X218119831Y-79427794D01*
X218120947Y-79483768D01*
X218125052Y-79725822D01*
X218054932Y-79725822D01*
X218012393Y-79724038D01*
X217990476Y-79717942D01*
X217984812Y-79707706D01*
X217981821Y-79696637D01*
X217968451Y-79698754D01*
X217950233Y-79707629D01*
X217904624Y-79721233D01*
X217846007Y-79724899D01*
X217784354Y-79718903D01*
X217729638Y-79703521D01*
X217724730Y-79701386D01*
X217674723Y-79666255D01*
X217641756Y-79617419D01*
X217626587Y-79560333D01*
X217627746Y-79539824D01*
X217751508Y-79539824D01*
X217762413Y-79567425D01*
X217794745Y-79587204D01*
X217846910Y-79597819D01*
X217874787Y-79599228D01*
X217921247Y-79595620D01*
X217952129Y-79581597D01*
X217959664Y-79574931D01*
X217980076Y-79538666D01*
X217984812Y-79505773D01*
X217984812Y-79461763D01*
X217923513Y-79461763D01*
X217852256Y-79465395D01*
X217802276Y-79476818D01*
X217770696Y-79496824D01*
X217763626Y-79505743D01*
X217751508Y-79539824D01*
X217627746Y-79539824D01*
X217629971Y-79500456D01*
X217652663Y-79443244D01*
X217683624Y-79404580D01*
X217702376Y-79387864D01*
X217720733Y-79376878D01*
X217744619Y-79370180D01*
X217779957Y-79366326D01*
X217832669Y-79363873D01*
X217853577Y-79363168D01*
X217984812Y-79358879D01*
X217984620Y-79319158D01*
X217979537Y-79277405D01*
X217961162Y-79252158D01*
X217924039Y-79236030D01*
X217923043Y-79235742D01*
X217870410Y-79229400D01*
X217818906Y-79237684D01*
X217780630Y-79257827D01*
X217765272Y-79267773D01*
X217748730Y-79266397D01*
X217723275Y-79251987D01*
X217708328Y-79241817D01*
X217679091Y-79220088D01*
X217660980Y-79203800D01*
X217658074Y-79199137D01*
X217670040Y-79175005D01*
X217705396Y-79146185D01*
X217720753Y-79136461D01*
X217764901Y-79119714D01*
X217824398Y-79110227D01*
X217890487Y-79108095D01*
X217954411Y-79113417D01*
X217954411Y-79113417D01*
G37*
X217954411Y-79113417D02*
X218007411Y-79126290D01*
X218022731Y-79133110D01*
X218052428Y-79150974D01*
X218075220Y-79171093D01*
X218092083Y-79196962D01*
X218103998Y-79232073D01*
X218111942Y-79279920D01*
X218116894Y-79343996D01*
X218119831Y-79427794D01*
X218120947Y-79483768D01*
X218125052Y-79725822D01*
X218054932Y-79725822D01*
X218012393Y-79724038D01*
X217990476Y-79717942D01*
X217984812Y-79707706D01*
X217981821Y-79696637D01*
X217968451Y-79698754D01*
X217950233Y-79707629D01*
X217904624Y-79721233D01*
X217846007Y-79724899D01*
X217784354Y-79718903D01*
X217729638Y-79703521D01*
X217724730Y-79701386D01*
X217674723Y-79666255D01*
X217641756Y-79617419D01*
X217626587Y-79560333D01*
X217627746Y-79539824D01*
X217751508Y-79539824D01*
X217762413Y-79567425D01*
X217794745Y-79587204D01*
X217846910Y-79597819D01*
X217874787Y-79599228D01*
X217921247Y-79595620D01*
X217952129Y-79581597D01*
X217959664Y-79574931D01*
X217980076Y-79538666D01*
X217984812Y-79505773D01*
X217984812Y-79461763D01*
X217923513Y-79461763D01*
X217852256Y-79465395D01*
X217802276Y-79476818D01*
X217770696Y-79496824D01*
X217763626Y-79505743D01*
X217751508Y-79539824D01*
X217627746Y-79539824D01*
X217629971Y-79500456D01*
X217652663Y-79443244D01*
X217683624Y-79404580D01*
X217702376Y-79387864D01*
X217720733Y-79376878D01*
X217744619Y-79370180D01*
X217779957Y-79366326D01*
X217832669Y-79363873D01*
X217853577Y-79363168D01*
X217984812Y-79358879D01*
X217984620Y-79319158D01*
X217979537Y-79277405D01*
X217961162Y-79252158D01*
X217924039Y-79236030D01*
X217923043Y-79235742D01*
X217870410Y-79229400D01*
X217818906Y-79237684D01*
X217780630Y-79257827D01*
X217765272Y-79267773D01*
X217748730Y-79266397D01*
X217723275Y-79251987D01*
X217708328Y-79241817D01*
X217679091Y-79220088D01*
X217660980Y-79203800D01*
X217658074Y-79199137D01*
X217670040Y-79175005D01*
X217705396Y-79146185D01*
X217720753Y-79136461D01*
X217764901Y-79119714D01*
X217824398Y-79110227D01*
X217890487Y-79108095D01*
X217954411Y-79113417D01*
G36*
X218551255Y-79109486D02*
X218599595Y-79119015D01*
X218627114Y-79133125D01*
X218656064Y-79156568D01*
X218614876Y-79208571D01*
X218589482Y-79240064D01*
X218572238Y-79255428D01*
X218555102Y-79257776D01*
X218530027Y-79250217D01*
X218518257Y-79245941D01*
X218470270Y-79239631D01*
X218426324Y-79253156D01*
X218394060Y-79283710D01*
X218388819Y-79293452D01*
X218383112Y-79319258D01*
X218378706Y-79366817D01*
X218375811Y-79432758D01*
X218374631Y-79513710D01*
X218374614Y-79525226D01*
X218374614Y-79725822D01*
X218236297Y-79725822D01*
X218236297Y-79109683D01*
X218305456Y-79109683D01*
X218345333Y-79110725D01*
X218366107Y-79115358D01*
X218373789Y-79125849D01*
X218374614Y-79135745D01*
X218374614Y-79161806D01*
X218407745Y-79135745D01*
X218445735Y-79117965D01*
X218496770Y-79109174D01*
X218551255Y-79109486D01*
X218551255Y-79109486D01*
G37*
X218551255Y-79109486D02*
X218599595Y-79119015D01*
X218627114Y-79133125D01*
X218656064Y-79156568D01*
X218614876Y-79208571D01*
X218589482Y-79240064D01*
X218572238Y-79255428D01*
X218555102Y-79257776D01*
X218530027Y-79250217D01*
X218518257Y-79245941D01*
X218470270Y-79239631D01*
X218426324Y-79253156D01*
X218394060Y-79283710D01*
X218388819Y-79293452D01*
X218383112Y-79319258D01*
X218378706Y-79366817D01*
X218375811Y-79432758D01*
X218374631Y-79513710D01*
X218374614Y-79525226D01*
X218374614Y-79725822D01*
X218236297Y-79725822D01*
X218236297Y-79109683D01*
X218305456Y-79109683D01*
X218345333Y-79110725D01*
X218366107Y-79115358D01*
X218373789Y-79125849D01*
X218374614Y-79135745D01*
X218374614Y-79161806D01*
X218407745Y-79135745D01*
X218445735Y-79117965D01*
X218496770Y-79109174D01*
X218551255Y-79109486D01*
G36*
X218948581Y-79112970D02*
X219008685Y-79128597D01*
X219059021Y-79160848D01*
X219083393Y-79184940D01*
X219123345Y-79241895D01*
X219146242Y-79307965D01*
X219154108Y-79389182D01*
X219154148Y-79395748D01*
X219154218Y-79461763D01*
X218774264Y-79461763D01*
X218782363Y-79496342D01*
X218796987Y-79527659D01*
X218822581Y-79560291D01*
X218827935Y-79565500D01*
X218873943Y-79593694D01*
X218926410Y-79598475D01*
X218986803Y-79579926D01*
X218997040Y-79574931D01*
X219028439Y-79559745D01*
X219049470Y-79551094D01*
X219053139Y-79550293D01*
X219065948Y-79558063D01*
X219090378Y-79577072D01*
X219102779Y-79587460D01*
X219128476Y-79611321D01*
X219136915Y-79627077D01*
X219131058Y-79641571D01*
X219127928Y-79645534D01*
X219106725Y-79662879D01*
X219071738Y-79683959D01*
X219047337Y-79696265D01*
X218978072Y-79717946D01*
X218901388Y-79724971D01*
X218828765Y-79716647D01*
X218808426Y-79710686D01*
X218745476Y-79676952D01*
X218698815Y-79625045D01*
X218668173Y-79554459D01*
X218653282Y-79464692D01*
X218651647Y-79417753D01*
X218656421Y-79349413D01*
X218776990Y-79349413D01*
X218788652Y-79354465D01*
X218819998Y-79358429D01*
X218865571Y-79360768D01*
X218896446Y-79361169D01*
X218951981Y-79360783D01*
X218987033Y-79358975D01*
X219006262Y-79354773D01*
X219014330Y-79347203D01*
X219015901Y-79336218D01*
X219005121Y-79302381D01*
X218977980Y-79268940D01*
X218942277Y-79243272D01*
X218906560Y-79232772D01*
X218858048Y-79242086D01*
X218816053Y-79269013D01*
X218786936Y-79307827D01*
X218776990Y-79349413D01*
X218656421Y-79349413D01*
X218658599Y-79318236D01*
X218680055Y-79238949D01*
X218716470Y-79179263D01*
X218768297Y-79138549D01*
X218835990Y-79116179D01*
X218872662Y-79111871D01*
X218948581Y-79112970D01*
X218948581Y-79112970D01*
G37*
X218948581Y-79112970D02*
X219008685Y-79128597D01*
X219059021Y-79160848D01*
X219083393Y-79184940D01*
X219123345Y-79241895D01*
X219146242Y-79307965D01*
X219154108Y-79389182D01*
X219154148Y-79395748D01*
X219154218Y-79461763D01*
X218774264Y-79461763D01*
X218782363Y-79496342D01*
X218796987Y-79527659D01*
X218822581Y-79560291D01*
X218827935Y-79565500D01*
X218873943Y-79593694D01*
X218926410Y-79598475D01*
X218986803Y-79579926D01*
X218997040Y-79574931D01*
X219028439Y-79559745D01*
X219049470Y-79551094D01*
X219053139Y-79550293D01*
X219065948Y-79558063D01*
X219090378Y-79577072D01*
X219102779Y-79587460D01*
X219128476Y-79611321D01*
X219136915Y-79627077D01*
X219131058Y-79641571D01*
X219127928Y-79645534D01*
X219106725Y-79662879D01*
X219071738Y-79683959D01*
X219047337Y-79696265D01*
X218978072Y-79717946D01*
X218901388Y-79724971D01*
X218828765Y-79716647D01*
X218808426Y-79710686D01*
X218745476Y-79676952D01*
X218698815Y-79625045D01*
X218668173Y-79554459D01*
X218653282Y-79464692D01*
X218651647Y-79417753D01*
X218656421Y-79349413D01*
X218776990Y-79349413D01*
X218788652Y-79354465D01*
X218819998Y-79358429D01*
X218865571Y-79360768D01*
X218896446Y-79361169D01*
X218951981Y-79360783D01*
X218987033Y-79358975D01*
X219006262Y-79354773D01*
X219014330Y-79347203D01*
X219015901Y-79336218D01*
X219005121Y-79302381D01*
X218977980Y-79268940D01*
X218942277Y-79243272D01*
X218906560Y-79232772D01*
X218858048Y-79242086D01*
X218816053Y-79269013D01*
X218786936Y-79307827D01*
X218776990Y-79349413D01*
X218656421Y-79349413D01*
X218658599Y-79318236D01*
X218680055Y-79238949D01*
X218716470Y-79179263D01*
X218768297Y-79138549D01*
X218835990Y-79116179D01*
X218872662Y-79111871D01*
X218948581Y-79112970D01*
G36*
X214377739Y-78173148D02*
X214443521Y-78202231D01*
X214493460Y-78250793D01*
X214527626Y-78318908D01*
X214546093Y-78406651D01*
X214547417Y-78420351D01*
X214548454Y-78516939D01*
X214535007Y-78601602D01*
X214507892Y-78670221D01*
X214493373Y-78692294D01*
X214442799Y-78739011D01*
X214378391Y-78769268D01*
X214306334Y-78781824D01*
X214232815Y-78775439D01*
X214176928Y-78755772D01*
X214128868Y-78722629D01*
X214089588Y-78679175D01*
X214088908Y-78678158D01*
X214072956Y-78651338D01*
X214062590Y-78624368D01*
X214056312Y-78590332D01*
X214052627Y-78542310D01*
X214051003Y-78502931D01*
X214050328Y-78467219D01*
X214176045Y-78467219D01*
X214177274Y-78502770D01*
X214181734Y-78550094D01*
X214189603Y-78580465D01*
X214203793Y-78602072D01*
X214217083Y-78614694D01*
X214264198Y-78641122D01*
X214313495Y-78644653D01*
X214359407Y-78625639D01*
X214382362Y-78604331D01*
X214398904Y-78582859D01*
X214408579Y-78562313D01*
X214412826Y-78535574D01*
X214413080Y-78495523D01*
X214411772Y-78458638D01*
X214408957Y-78405947D01*
X214404495Y-78371772D01*
X214396452Y-78349480D01*
X214382897Y-78332442D01*
X214372155Y-78322703D01*
X214327223Y-78297123D01*
X214278751Y-78295847D01*
X214238106Y-78310999D01*
X214203433Y-78342642D01*
X214182776Y-78394620D01*
X214176045Y-78467219D01*
X214050328Y-78467219D01*
X214049521Y-78424621D01*
X214052052Y-78366056D01*
X214059638Y-78322007D01*
X214073319Y-78287248D01*
X214094135Y-78256551D01*
X214101853Y-78247436D01*
X214150111Y-78202021D01*
X214201872Y-78175493D01*
X214265172Y-78164379D01*
X214296039Y-78163471D01*
X214377739Y-78173148D01*
X214377739Y-78173148D01*
G37*
X214377739Y-78173148D02*
X214443521Y-78202231D01*
X214493460Y-78250793D01*
X214527626Y-78318908D01*
X214546093Y-78406651D01*
X214547417Y-78420351D01*
X214548454Y-78516939D01*
X214535007Y-78601602D01*
X214507892Y-78670221D01*
X214493373Y-78692294D01*
X214442799Y-78739011D01*
X214378391Y-78769268D01*
X214306334Y-78781824D01*
X214232815Y-78775439D01*
X214176928Y-78755772D01*
X214128868Y-78722629D01*
X214089588Y-78679175D01*
X214088908Y-78678158D01*
X214072956Y-78651338D01*
X214062590Y-78624368D01*
X214056312Y-78590332D01*
X214052627Y-78542310D01*
X214051003Y-78502931D01*
X214050328Y-78467219D01*
X214176045Y-78467219D01*
X214177274Y-78502770D01*
X214181734Y-78550094D01*
X214189603Y-78580465D01*
X214203793Y-78602072D01*
X214217083Y-78614694D01*
X214264198Y-78641122D01*
X214313495Y-78644653D01*
X214359407Y-78625639D01*
X214382362Y-78604331D01*
X214398904Y-78582859D01*
X214408579Y-78562313D01*
X214412826Y-78535574D01*
X214413080Y-78495523D01*
X214411772Y-78458638D01*
X214408957Y-78405947D01*
X214404495Y-78371772D01*
X214396452Y-78349480D01*
X214382897Y-78332442D01*
X214372155Y-78322703D01*
X214327223Y-78297123D01*
X214278751Y-78295847D01*
X214238106Y-78310999D01*
X214203433Y-78342642D01*
X214182776Y-78394620D01*
X214176045Y-78467219D01*
X214050328Y-78467219D01*
X214049521Y-78424621D01*
X214052052Y-78366056D01*
X214059638Y-78322007D01*
X214073319Y-78287248D01*
X214094135Y-78256551D01*
X214101853Y-78247436D01*
X214150111Y-78202021D01*
X214201872Y-78175493D01*
X214265172Y-78164379D01*
X214296039Y-78163471D01*
X214377739Y-78173148D01*
G36*
X215559301Y-78180614D02*
X215571832Y-78186514D01*
X215615201Y-78218283D01*
X215656210Y-78264646D01*
X215686832Y-78315696D01*
X215695541Y-78339166D01*
X215703488Y-78381091D01*
X215708226Y-78431757D01*
X215708801Y-78452679D01*
X215708871Y-78518693D01*
X215328917Y-78518693D01*
X215337017Y-78553273D01*
X215356896Y-78594170D01*
X215391653Y-78629514D01*
X215433002Y-78652282D01*
X215459351Y-78657010D01*
X215495084Y-78651273D01*
X215537718Y-78636882D01*
X215552201Y-78630262D01*
X215605760Y-78603513D01*
X215651467Y-78638376D01*
X215677842Y-78661955D01*
X215691876Y-78681417D01*
X215692586Y-78687129D01*
X215680049Y-78700973D01*
X215652572Y-78722012D01*
X215627634Y-78738425D01*
X215560336Y-78767930D01*
X215484890Y-78781284D01*
X215410112Y-78777812D01*
X215350505Y-78759663D01*
X215289059Y-78720784D01*
X215245392Y-78669595D01*
X215218074Y-78603367D01*
X215205678Y-78519371D01*
X215204579Y-78480936D01*
X215208978Y-78392861D01*
X215209518Y-78390299D01*
X215335418Y-78390299D01*
X215338885Y-78398558D01*
X215353137Y-78403113D01*
X215382530Y-78405065D01*
X215431425Y-78405517D01*
X215450252Y-78405525D01*
X215507533Y-78404843D01*
X215543859Y-78402364D01*
X215563396Y-78397443D01*
X215570310Y-78389434D01*
X215570555Y-78386862D01*
X215562664Y-78366423D01*
X215542915Y-78337789D01*
X215534425Y-78327763D01*
X215502906Y-78299408D01*
X215470051Y-78288259D01*
X215452349Y-78287327D01*
X215404461Y-78298981D01*
X215364301Y-78330285D01*
X215338827Y-78375752D01*
X215338375Y-78377233D01*
X215335418Y-78390299D01*
X215209518Y-78390299D01*
X215223608Y-78323510D01*
X215249962Y-78268025D01*
X215282193Y-78228639D01*
X215341783Y-78185931D01*
X215411832Y-78163109D01*
X215486339Y-78161046D01*
X215559301Y-78180614D01*
X215559301Y-78180614D01*
G37*
X215559301Y-78180614D02*
X215571832Y-78186514D01*
X215615201Y-78218283D01*
X215656210Y-78264646D01*
X215686832Y-78315696D01*
X215695541Y-78339166D01*
X215703488Y-78381091D01*
X215708226Y-78431757D01*
X215708801Y-78452679D01*
X215708871Y-78518693D01*
X215328917Y-78518693D01*
X215337017Y-78553273D01*
X215356896Y-78594170D01*
X215391653Y-78629514D01*
X215433002Y-78652282D01*
X215459351Y-78657010D01*
X215495084Y-78651273D01*
X215537718Y-78636882D01*
X215552201Y-78630262D01*
X215605760Y-78603513D01*
X215651467Y-78638376D01*
X215677842Y-78661955D01*
X215691876Y-78681417D01*
X215692586Y-78687129D01*
X215680049Y-78700973D01*
X215652572Y-78722012D01*
X215627634Y-78738425D01*
X215560336Y-78767930D01*
X215484890Y-78781284D01*
X215410112Y-78777812D01*
X215350505Y-78759663D01*
X215289059Y-78720784D01*
X215245392Y-78669595D01*
X215218074Y-78603367D01*
X215205678Y-78519371D01*
X215204579Y-78480936D01*
X215208978Y-78392861D01*
X215209518Y-78390299D01*
X215335418Y-78390299D01*
X215338885Y-78398558D01*
X215353137Y-78403113D01*
X215382530Y-78405065D01*
X215431425Y-78405517D01*
X215450252Y-78405525D01*
X215507533Y-78404843D01*
X215543859Y-78402364D01*
X215563396Y-78397443D01*
X215570310Y-78389434D01*
X215570555Y-78386862D01*
X215562664Y-78366423D01*
X215542915Y-78337789D01*
X215534425Y-78327763D01*
X215502906Y-78299408D01*
X215470051Y-78288259D01*
X215452349Y-78287327D01*
X215404461Y-78298981D01*
X215364301Y-78330285D01*
X215338827Y-78375752D01*
X215338375Y-78377233D01*
X215335418Y-78390299D01*
X215209518Y-78390299D01*
X215223608Y-78323510D01*
X215249962Y-78268025D01*
X215282193Y-78228639D01*
X215341783Y-78185931D01*
X215411832Y-78163109D01*
X215486339Y-78161046D01*
X215559301Y-78180614D01*
G36*
X216930017Y-78164452D02*
X216977634Y-78173482D01*
X217027034Y-78192370D01*
X217032312Y-78194777D01*
X217069774Y-78214476D01*
X217095717Y-78232781D01*
X217104103Y-78244508D01*
X217096117Y-78263632D01*
X217076720Y-78291850D01*
X217068110Y-78302384D01*
X217032628Y-78343847D01*
X216986885Y-78316858D01*
X216943350Y-78298878D01*
X216893050Y-78289267D01*
X216844812Y-78288660D01*
X216807467Y-78297691D01*
X216798505Y-78303327D01*
X216781437Y-78329171D01*
X216779363Y-78358941D01*
X216792134Y-78382197D01*
X216799688Y-78386708D01*
X216822325Y-78392309D01*
X216862115Y-78398892D01*
X216911166Y-78405183D01*
X216920215Y-78406170D01*
X216998996Y-78419798D01*
X217056136Y-78442946D01*
X217094030Y-78477752D01*
X217115079Y-78526354D01*
X217121635Y-78585718D01*
X217112577Y-78653198D01*
X217083164Y-78706188D01*
X217033278Y-78744783D01*
X216962800Y-78769081D01*
X216884565Y-78778667D01*
X216820766Y-78778552D01*
X216769016Y-78769845D01*
X216733673Y-78757825D01*
X216689017Y-78736880D01*
X216647747Y-78712574D01*
X216633079Y-78701876D01*
X216595357Y-78671084D01*
X216640852Y-78625049D01*
X216686347Y-78579013D01*
X216738072Y-78613243D01*
X216789952Y-78638952D01*
X216845351Y-78652399D01*
X216898605Y-78653818D01*
X216944049Y-78643443D01*
X216976016Y-78621507D01*
X216986338Y-78602998D01*
X216984789Y-78573314D01*
X216959140Y-78550615D01*
X216909460Y-78534940D01*
X216855031Y-78527695D01*
X216771264Y-78513873D01*
X216709033Y-78487796D01*
X216667507Y-78448699D01*
X216645853Y-78395820D01*
X216642853Y-78333126D01*
X216657671Y-78267642D01*
X216691454Y-78218144D01*
X216744505Y-78184408D01*
X216817126Y-78166207D01*
X216870928Y-78162639D01*
X216930017Y-78164452D01*
X216930017Y-78164452D01*
G37*
X216930017Y-78164452D02*
X216977634Y-78173482D01*
X217027034Y-78192370D01*
X217032312Y-78194777D01*
X217069774Y-78214476D01*
X217095717Y-78232781D01*
X217104103Y-78244508D01*
X217096117Y-78263632D01*
X217076720Y-78291850D01*
X217068110Y-78302384D01*
X217032628Y-78343847D01*
X216986885Y-78316858D01*
X216943350Y-78298878D01*
X216893050Y-78289267D01*
X216844812Y-78288660D01*
X216807467Y-78297691D01*
X216798505Y-78303327D01*
X216781437Y-78329171D01*
X216779363Y-78358941D01*
X216792134Y-78382197D01*
X216799688Y-78386708D01*
X216822325Y-78392309D01*
X216862115Y-78398892D01*
X216911166Y-78405183D01*
X216920215Y-78406170D01*
X216998996Y-78419798D01*
X217056136Y-78442946D01*
X217094030Y-78477752D01*
X217115079Y-78526354D01*
X217121635Y-78585718D01*
X217112577Y-78653198D01*
X217083164Y-78706188D01*
X217033278Y-78744783D01*
X216962800Y-78769081D01*
X216884565Y-78778667D01*
X216820766Y-78778552D01*
X216769016Y-78769845D01*
X216733673Y-78757825D01*
X216689017Y-78736880D01*
X216647747Y-78712574D01*
X216633079Y-78701876D01*
X216595357Y-78671084D01*
X216640852Y-78625049D01*
X216686347Y-78579013D01*
X216738072Y-78613243D01*
X216789952Y-78638952D01*
X216845351Y-78652399D01*
X216898605Y-78653818D01*
X216944049Y-78643443D01*
X216976016Y-78621507D01*
X216986338Y-78602998D01*
X216984789Y-78573314D01*
X216959140Y-78550615D01*
X216909460Y-78534940D01*
X216855031Y-78527695D01*
X216771264Y-78513873D01*
X216709033Y-78487796D01*
X216667507Y-78448699D01*
X216645853Y-78395820D01*
X216642853Y-78333126D01*
X216657671Y-78267642D01*
X216691454Y-78218144D01*
X216744505Y-78184408D01*
X216817126Y-78166207D01*
X216870928Y-78162639D01*
X216930017Y-78164452D01*
G36*
X217526762Y-78174055D02*
X217590363Y-78208692D01*
X217640123Y-78263372D01*
X217663568Y-78307842D01*
X217673634Y-78347121D01*
X217680156Y-78403116D01*
X217682951Y-78467621D01*
X217681836Y-78532429D01*
X217676626Y-78589334D01*
X217670541Y-78619727D01*
X217650014Y-78661306D01*
X217614463Y-78705468D01*
X217571619Y-78744087D01*
X217529211Y-78769034D01*
X217528177Y-78769430D01*
X217475553Y-78780331D01*
X217413188Y-78780601D01*
X217353924Y-78770676D01*
X217331040Y-78762722D01*
X217272102Y-78729300D01*
X217229890Y-78685511D01*
X217202156Y-78627538D01*
X217186651Y-78551565D01*
X217183143Y-78511771D01*
X217183590Y-78461766D01*
X217318376Y-78461766D01*
X217322917Y-78534732D01*
X217335986Y-78590334D01*
X217356756Y-78625861D01*
X217371552Y-78636020D01*
X217409464Y-78643104D01*
X217454527Y-78641007D01*
X217493487Y-78630812D01*
X217503704Y-78625204D01*
X217530659Y-78592538D01*
X217548451Y-78542545D01*
X217556024Y-78481705D01*
X217552325Y-78416497D01*
X217544057Y-78377253D01*
X217520320Y-78331805D01*
X217482849Y-78303396D01*
X217437720Y-78293573D01*
X217391011Y-78303887D01*
X217355132Y-78329112D01*
X217336277Y-78349925D01*
X217325272Y-78370439D01*
X217320026Y-78398203D01*
X217318449Y-78440762D01*
X217318376Y-78461766D01*
X217183590Y-78461766D01*
X217184094Y-78405580D01*
X217201388Y-78318501D01*
X217235029Y-78250530D01*
X217285018Y-78201664D01*
X217351356Y-78171899D01*
X217365601Y-78168448D01*
X217451210Y-78160345D01*
X217526762Y-78174055D01*
X217526762Y-78174055D01*
G37*
X217526762Y-78174055D02*
X217590363Y-78208692D01*
X217640123Y-78263372D01*
X217663568Y-78307842D01*
X217673634Y-78347121D01*
X217680156Y-78403116D01*
X217682951Y-78467621D01*
X217681836Y-78532429D01*
X217676626Y-78589334D01*
X217670541Y-78619727D01*
X217650014Y-78661306D01*
X217614463Y-78705468D01*
X217571619Y-78744087D01*
X217529211Y-78769034D01*
X217528177Y-78769430D01*
X217475553Y-78780331D01*
X217413188Y-78780601D01*
X217353924Y-78770676D01*
X217331040Y-78762722D01*
X217272102Y-78729300D01*
X217229890Y-78685511D01*
X217202156Y-78627538D01*
X217186651Y-78551565D01*
X217183143Y-78511771D01*
X217183590Y-78461766D01*
X217318376Y-78461766D01*
X217322917Y-78534732D01*
X217335986Y-78590334D01*
X217356756Y-78625861D01*
X217371552Y-78636020D01*
X217409464Y-78643104D01*
X217454527Y-78641007D01*
X217493487Y-78630812D01*
X217503704Y-78625204D01*
X217530659Y-78592538D01*
X217548451Y-78542545D01*
X217556024Y-78481705D01*
X217552325Y-78416497D01*
X217544057Y-78377253D01*
X217520320Y-78331805D01*
X217482849Y-78303396D01*
X217437720Y-78293573D01*
X217391011Y-78303887D01*
X217355132Y-78329112D01*
X217336277Y-78349925D01*
X217325272Y-78370439D01*
X217320026Y-78398203D01*
X217318449Y-78440762D01*
X217318376Y-78461766D01*
X217183590Y-78461766D01*
X217184094Y-78405580D01*
X217201388Y-78318501D01*
X217235029Y-78250530D01*
X217285018Y-78201664D01*
X217351356Y-78171899D01*
X217365601Y-78168448D01*
X217451210Y-78160345D01*
X217526762Y-78174055D01*
G36*
X217909367Y-78362342D02*
X217910555Y-78454563D01*
X217914897Y-78524610D01*
X217923558Y-78575381D01*
X217937704Y-78609772D01*
X217958500Y-78630679D01*
X217987110Y-78641000D01*
X218022535Y-78643636D01*
X218059636Y-78640682D01*
X218087818Y-78629889D01*
X218108243Y-78608360D01*
X218122079Y-78573199D01*
X218130491Y-78521510D01*
X218134643Y-78450394D01*
X218135703Y-78362342D01*
X218135703Y-78166614D01*
X218274020Y-78166614D01*
X218274020Y-78770179D01*
X218204862Y-78770179D01*
X218163170Y-78768489D01*
X218141701Y-78762556D01*
X218135703Y-78751293D01*
X218132091Y-78741261D01*
X218117714Y-78743383D01*
X218088736Y-78757580D01*
X218022319Y-78779480D01*
X217951875Y-78777928D01*
X217884377Y-78754147D01*
X217852233Y-78735362D01*
X217827715Y-78715022D01*
X217809804Y-78689573D01*
X217797479Y-78655458D01*
X217789723Y-78609121D01*
X217785516Y-78547007D01*
X217783840Y-78465561D01*
X217783624Y-78402578D01*
X217783624Y-78166614D01*
X217909367Y-78166614D01*
X217909367Y-78362342D01*
X217909367Y-78362342D01*
G37*
X217909367Y-78362342D02*
X217910555Y-78454563D01*
X217914897Y-78524610D01*
X217923558Y-78575381D01*
X217937704Y-78609772D01*
X217958500Y-78630679D01*
X217987110Y-78641000D01*
X218022535Y-78643636D01*
X218059636Y-78640682D01*
X218087818Y-78629889D01*
X218108243Y-78608360D01*
X218122079Y-78573199D01*
X218130491Y-78521510D01*
X218134643Y-78450394D01*
X218135703Y-78362342D01*
X218135703Y-78166614D01*
X218274020Y-78166614D01*
X218274020Y-78770179D01*
X218204862Y-78770179D01*
X218163170Y-78768489D01*
X218141701Y-78762556D01*
X218135703Y-78751293D01*
X218132091Y-78741261D01*
X218117714Y-78743383D01*
X218088736Y-78757580D01*
X218022319Y-78779480D01*
X217951875Y-78777928D01*
X217884377Y-78754147D01*
X217852233Y-78735362D01*
X217827715Y-78715022D01*
X217809804Y-78689573D01*
X217797479Y-78655458D01*
X217789723Y-78609121D01*
X217785516Y-78547007D01*
X217783840Y-78465561D01*
X217783624Y-78402578D01*
X217783624Y-78166614D01*
X217909367Y-78166614D01*
X217909367Y-78362342D01*
G36*
X219133226Y-78171880D02*
X219206080Y-78202830D01*
X219229027Y-78217895D01*
X219258354Y-78241048D01*
X219276764Y-78259253D01*
X219279961Y-78265183D01*
X219270935Y-78278340D01*
X219247837Y-78300667D01*
X219229344Y-78316250D01*
X219178728Y-78356926D01*
X219138760Y-78323295D01*
X219107874Y-78301584D01*
X219077759Y-78294090D01*
X219043292Y-78295920D01*
X218988561Y-78309528D01*
X218950886Y-78337772D01*
X218927991Y-78383433D01*
X218917597Y-78449289D01*
X218917595Y-78449331D01*
X218918494Y-78522939D01*
X218932463Y-78576946D01*
X218960328Y-78613716D01*
X218979325Y-78626168D01*
X219029776Y-78641673D01*
X219083663Y-78641683D01*
X219130546Y-78626638D01*
X219141644Y-78619287D01*
X219169476Y-78600511D01*
X219191236Y-78597434D01*
X219214704Y-78611409D01*
X219240649Y-78636510D01*
X219281716Y-78678880D01*
X219236121Y-78716464D01*
X219165674Y-78758882D01*
X219086233Y-78779785D01*
X219003215Y-78778272D01*
X218948694Y-78764411D01*
X218884970Y-78730135D01*
X218834005Y-78676212D01*
X218810851Y-78638149D01*
X218792099Y-78583536D01*
X218782715Y-78514369D01*
X218782643Y-78439407D01*
X218791824Y-78367409D01*
X218810199Y-78307137D01*
X218813093Y-78300958D01*
X218855952Y-78240351D01*
X218913979Y-78196224D01*
X218982591Y-78169493D01*
X219057201Y-78161073D01*
X219133226Y-78171880D01*
X219133226Y-78171880D01*
G37*
X219133226Y-78171880D02*
X219206080Y-78202830D01*
X219229027Y-78217895D01*
X219258354Y-78241048D01*
X219276764Y-78259253D01*
X219279961Y-78265183D01*
X219270935Y-78278340D01*
X219247837Y-78300667D01*
X219229344Y-78316250D01*
X219178728Y-78356926D01*
X219138760Y-78323295D01*
X219107874Y-78301584D01*
X219077759Y-78294090D01*
X219043292Y-78295920D01*
X218988561Y-78309528D01*
X218950886Y-78337772D01*
X218927991Y-78383433D01*
X218917597Y-78449289D01*
X218917595Y-78449331D01*
X218918494Y-78522939D01*
X218932463Y-78576946D01*
X218960328Y-78613716D01*
X218979325Y-78626168D01*
X219029776Y-78641673D01*
X219083663Y-78641683D01*
X219130546Y-78626638D01*
X219141644Y-78619287D01*
X219169476Y-78600511D01*
X219191236Y-78597434D01*
X219214704Y-78611409D01*
X219240649Y-78636510D01*
X219281716Y-78678880D01*
X219236121Y-78716464D01*
X219165674Y-78758882D01*
X219086233Y-78779785D01*
X219003215Y-78778272D01*
X218948694Y-78764411D01*
X218884970Y-78730135D01*
X218834005Y-78676212D01*
X218810851Y-78638149D01*
X218792099Y-78583536D01*
X218782715Y-78514369D01*
X218782643Y-78439407D01*
X218791824Y-78367409D01*
X218810199Y-78307137D01*
X218813093Y-78300958D01*
X218855952Y-78240351D01*
X218913979Y-78196224D01*
X218982591Y-78169493D01*
X219057201Y-78161073D01*
X219133226Y-78171880D01*
G36*
X219593898Y-78164457D02*
X219626096Y-78172279D01*
X219687825Y-78200921D01*
X219740610Y-78244667D01*
X219777141Y-78297117D01*
X219782160Y-78308893D01*
X219789045Y-78339740D01*
X219793864Y-78385371D01*
X219795505Y-78431492D01*
X219795505Y-78518693D01*
X219613178Y-78518693D01*
X219537979Y-78518978D01*
X219485003Y-78520704D01*
X219451325Y-78525181D01*
X219434020Y-78533720D01*
X219430163Y-78547630D01*
X219436829Y-78568222D01*
X219448770Y-78592315D01*
X219482080Y-78632525D01*
X219528368Y-78652558D01*
X219584944Y-78651905D01*
X219649031Y-78630101D01*
X219704417Y-78603193D01*
X219750375Y-78639532D01*
X219796333Y-78675872D01*
X219753096Y-78715819D01*
X219695374Y-78753563D01*
X219624386Y-78776320D01*
X219548029Y-78782688D01*
X219474199Y-78771268D01*
X219462287Y-78767393D01*
X219397399Y-78733506D01*
X219349130Y-78682986D01*
X219316465Y-78614325D01*
X219298385Y-78526014D01*
X219298175Y-78524121D01*
X219296556Y-78427878D01*
X219303100Y-78393542D01*
X219430852Y-78393542D01*
X219442584Y-78398822D01*
X219474438Y-78402867D01*
X219521397Y-78405176D01*
X219551154Y-78405525D01*
X219606648Y-78405306D01*
X219641346Y-78403916D01*
X219659601Y-78400251D01*
X219665766Y-78393210D01*
X219664195Y-78381690D01*
X219662878Y-78377233D01*
X219640382Y-78335355D01*
X219605003Y-78301604D01*
X219573780Y-78286773D01*
X219532301Y-78287668D01*
X219490269Y-78306164D01*
X219455012Y-78336786D01*
X219433854Y-78374062D01*
X219430852Y-78393542D01*
X219303100Y-78393542D01*
X219312690Y-78343229D01*
X219344698Y-78272191D01*
X219390701Y-78216779D01*
X219448821Y-78179009D01*
X219517180Y-78160896D01*
X219593898Y-78164457D01*
X219593898Y-78164457D01*
G37*
X219593898Y-78164457D02*
X219626096Y-78172279D01*
X219687825Y-78200921D01*
X219740610Y-78244667D01*
X219777141Y-78297117D01*
X219782160Y-78308893D01*
X219789045Y-78339740D01*
X219793864Y-78385371D01*
X219795505Y-78431492D01*
X219795505Y-78518693D01*
X219613178Y-78518693D01*
X219537979Y-78518978D01*
X219485003Y-78520704D01*
X219451325Y-78525181D01*
X219434020Y-78533720D01*
X219430163Y-78547630D01*
X219436829Y-78568222D01*
X219448770Y-78592315D01*
X219482080Y-78632525D01*
X219528368Y-78652558D01*
X219584944Y-78651905D01*
X219649031Y-78630101D01*
X219704417Y-78603193D01*
X219750375Y-78639532D01*
X219796333Y-78675872D01*
X219753096Y-78715819D01*
X219695374Y-78753563D01*
X219624386Y-78776320D01*
X219548029Y-78782688D01*
X219474199Y-78771268D01*
X219462287Y-78767393D01*
X219397399Y-78733506D01*
X219349130Y-78682986D01*
X219316465Y-78614325D01*
X219298385Y-78526014D01*
X219298175Y-78524121D01*
X219296556Y-78427878D01*
X219303100Y-78393542D01*
X219430852Y-78393542D01*
X219442584Y-78398822D01*
X219474438Y-78402867D01*
X219521397Y-78405176D01*
X219551154Y-78405525D01*
X219606648Y-78405306D01*
X219641346Y-78403916D01*
X219659601Y-78400251D01*
X219665766Y-78393210D01*
X219664195Y-78381690D01*
X219662878Y-78377233D01*
X219640382Y-78335355D01*
X219605003Y-78301604D01*
X219573780Y-78286773D01*
X219532301Y-78287668D01*
X219490269Y-78306164D01*
X219455012Y-78336786D01*
X219433854Y-78374062D01*
X219430852Y-78393542D01*
X219303100Y-78393542D01*
X219312690Y-78343229D01*
X219344698Y-78272191D01*
X219390701Y-78216779D01*
X219448821Y-78179009D01*
X219517180Y-78160896D01*
X219593898Y-78164457D01*
G36*
X216161988Y-78177002D02*
X216193283Y-78191950D01*
X216223591Y-78213541D01*
X216246682Y-78238391D01*
X216263500Y-78270087D01*
X216274994Y-78312214D01*
X216282109Y-78368358D01*
X216285793Y-78442106D01*
X216286992Y-78537044D01*
X216287011Y-78546985D01*
X216287287Y-78770179D01*
X216148970Y-78770179D01*
X216148970Y-78564418D01*
X216148872Y-78488189D01*
X216148191Y-78432939D01*
X216146349Y-78394501D01*
X216142767Y-78368706D01*
X216136868Y-78351384D01*
X216128073Y-78338368D01*
X216115820Y-78325507D01*
X216072953Y-78297873D01*
X216026157Y-78292745D01*
X215981576Y-78310217D01*
X215966072Y-78323221D01*
X215954690Y-78335447D01*
X215946519Y-78348540D01*
X215941026Y-78366615D01*
X215937680Y-78393787D01*
X215935949Y-78434170D01*
X215935303Y-78491879D01*
X215935208Y-78562132D01*
X215935208Y-78770179D01*
X215796891Y-78770179D01*
X215796891Y-78166614D01*
X215866050Y-78166614D01*
X215907572Y-78168256D01*
X215928994Y-78174087D01*
X215935205Y-78185461D01*
X215935208Y-78185798D01*
X215938090Y-78196938D01*
X215950801Y-78195674D01*
X215976074Y-78183434D01*
X216033395Y-78165424D01*
X216098963Y-78163421D01*
X216161988Y-78177002D01*
X216161988Y-78177002D01*
G37*
X216161988Y-78177002D02*
X216193283Y-78191950D01*
X216223591Y-78213541D01*
X216246682Y-78238391D01*
X216263500Y-78270087D01*
X216274994Y-78312214D01*
X216282109Y-78368358D01*
X216285793Y-78442106D01*
X216286992Y-78537044D01*
X216287011Y-78546985D01*
X216287287Y-78770179D01*
X216148970Y-78770179D01*
X216148970Y-78564418D01*
X216148872Y-78488189D01*
X216148191Y-78432939D01*
X216146349Y-78394501D01*
X216142767Y-78368706D01*
X216136868Y-78351384D01*
X216128073Y-78338368D01*
X216115820Y-78325507D01*
X216072953Y-78297873D01*
X216026157Y-78292745D01*
X215981576Y-78310217D01*
X215966072Y-78323221D01*
X215954690Y-78335447D01*
X215946519Y-78348540D01*
X215941026Y-78366615D01*
X215937680Y-78393787D01*
X215935949Y-78434170D01*
X215935303Y-78491879D01*
X215935208Y-78562132D01*
X215935208Y-78770179D01*
X215796891Y-78770179D01*
X215796891Y-78166614D01*
X215866050Y-78166614D01*
X215907572Y-78168256D01*
X215928994Y-78174087D01*
X215935205Y-78185461D01*
X215935208Y-78185798D01*
X215938090Y-78196938D01*
X215950801Y-78195674D01*
X215976074Y-78183434D01*
X216033395Y-78165424D01*
X216098963Y-78163421D01*
X216161988Y-78177002D01*
G36*
X218715460Y-78166030D02*
X218758711Y-78179245D01*
X218786558Y-78195941D01*
X218795629Y-78209145D01*
X218793132Y-78224797D01*
X218776931Y-78249385D01*
X218763232Y-78266800D01*
X218734992Y-78298283D01*
X218713775Y-78311529D01*
X218695688Y-78310664D01*
X218642035Y-78297010D01*
X218602630Y-78297630D01*
X218570632Y-78313104D01*
X218559890Y-78322161D01*
X218525505Y-78354027D01*
X218525505Y-78770179D01*
X218387188Y-78770179D01*
X218387188Y-78166614D01*
X218456347Y-78166614D01*
X218497869Y-78168256D01*
X218519291Y-78174087D01*
X218525502Y-78185461D01*
X218525505Y-78185798D01*
X218528439Y-78197713D01*
X218541704Y-78196159D01*
X218560084Y-78187563D01*
X218598046Y-78171568D01*
X218628872Y-78161945D01*
X218668536Y-78159478D01*
X218715460Y-78166030D01*
X218715460Y-78166030D01*
G37*
X218715460Y-78166030D02*
X218758711Y-78179245D01*
X218786558Y-78195941D01*
X218795629Y-78209145D01*
X218793132Y-78224797D01*
X218776931Y-78249385D01*
X218763232Y-78266800D01*
X218734992Y-78298283D01*
X218713775Y-78311529D01*
X218695688Y-78310664D01*
X218642035Y-78297010D01*
X218602630Y-78297630D01*
X218570632Y-78313104D01*
X218559890Y-78322161D01*
X218525505Y-78354027D01*
X218525505Y-78770179D01*
X218387188Y-78770179D01*
X218387188Y-78166614D01*
X218456347Y-78166614D01*
X218497869Y-78168256D01*
X218519291Y-78174087D01*
X218525502Y-78185461D01*
X218525505Y-78185798D01*
X218528439Y-78197713D01*
X218541704Y-78196159D01*
X218560084Y-78187563D01*
X218598046Y-78171568D01*
X218628872Y-78161945D01*
X218668536Y-78159478D01*
X218715460Y-78166030D01*
G36*
X217292964Y-73998018D02*
X217349812Y-74299570D01*
X217769338Y-74472512D01*
X218020984Y-74301395D01*
X218091458Y-74253750D01*
X218155163Y-74211210D01*
X218209126Y-74175715D01*
X218250373Y-74149210D01*
X218275934Y-74133636D01*
X218282895Y-74130278D01*
X218295435Y-74138914D01*
X218322231Y-74162792D01*
X218360280Y-74198859D01*
X218406579Y-74244067D01*
X218458123Y-74295364D01*
X218511909Y-74349701D01*
X218564935Y-74404028D01*
X218614195Y-74455295D01*
X218656687Y-74500451D01*
X218689407Y-74536446D01*
X218709351Y-74560230D01*
X218714119Y-74568190D01*
X218707257Y-74582865D01*
X218688020Y-74615014D01*
X218658430Y-74661492D01*
X218620510Y-74719156D01*
X218576282Y-74784860D01*
X218550654Y-74822336D01*
X218503941Y-74890768D01*
X218462432Y-74952520D01*
X218428140Y-75004519D01*
X218403080Y-75043692D01*
X218389264Y-75066965D01*
X218387188Y-75071855D01*
X218391895Y-75085755D01*
X218404723Y-75118150D01*
X218423738Y-75164485D01*
X218447003Y-75220206D01*
X218472584Y-75280758D01*
X218498545Y-75341586D01*
X218522950Y-75398136D01*
X218543863Y-75445852D01*
X218559349Y-75480181D01*
X218567472Y-75496568D01*
X218567952Y-75497212D01*
X218580707Y-75500341D01*
X218614677Y-75507321D01*
X218666340Y-75517467D01*
X218732176Y-75530092D01*
X218808664Y-75544509D01*
X218853290Y-75552823D01*
X218935021Y-75568384D01*
X219008843Y-75583192D01*
X219071021Y-75596436D01*
X219117822Y-75607305D01*
X219145509Y-75614989D01*
X219151074Y-75617427D01*
X219156526Y-75633930D01*
X219160924Y-75671200D01*
X219164272Y-75724880D01*
X219166574Y-75790612D01*
X219167832Y-75864037D01*
X219168048Y-75940796D01*
X219167227Y-76016532D01*
X219165371Y-76086886D01*
X219162482Y-76147500D01*
X219158565Y-76194016D01*
X219153622Y-76222075D01*
X219150657Y-76227916D01*
X219132934Y-76234917D01*
X219095381Y-76244927D01*
X219042964Y-76256769D01*
X218980652Y-76269267D01*
X218958900Y-76273310D01*
X218854024Y-76292520D01*
X218771180Y-76307991D01*
X218707630Y-76320337D01*
X218660637Y-76330173D01*
X218627463Y-76338114D01*
X218605371Y-76344776D01*
X218591624Y-76350773D01*
X218583484Y-76356719D01*
X218582345Y-76357894D01*
X218570977Y-76376826D01*
X218553635Y-76413669D01*
X218532050Y-76463913D01*
X218507954Y-76523046D01*
X218483079Y-76586556D01*
X218459157Y-76649932D01*
X218437919Y-76708662D01*
X218421097Y-76758235D01*
X218410422Y-76794139D01*
X218407627Y-76811862D01*
X218407860Y-76812483D01*
X218417331Y-76826970D01*
X218438818Y-76858844D01*
X218470063Y-76904789D01*
X218508807Y-76961485D01*
X218552793Y-77025617D01*
X218565319Y-77043842D01*
X218609984Y-77109914D01*
X218649288Y-77170200D01*
X218681088Y-77221235D01*
X218703245Y-77259560D01*
X218713617Y-77281711D01*
X218714119Y-77284432D01*
X218705405Y-77298736D01*
X218681325Y-77327072D01*
X218644976Y-77366396D01*
X218599453Y-77413661D01*
X218547852Y-77465823D01*
X218493267Y-77519835D01*
X218438794Y-77572653D01*
X218387529Y-77621231D01*
X218342567Y-77662523D01*
X218307004Y-77693485D01*
X218283935Y-77711070D01*
X218277554Y-77713941D01*
X218262699Y-77707178D01*
X218232286Y-77688939D01*
X218191268Y-77662297D01*
X218159709Y-77640852D01*
X218102525Y-77601503D01*
X218034806Y-77555171D01*
X217966880Y-77508913D01*
X217930361Y-77484155D01*
X217806752Y-77400547D01*
X217702991Y-77456650D01*
X217655720Y-77481228D01*
X217615523Y-77500331D01*
X217588326Y-77511227D01*
X217581402Y-77512743D01*
X217573077Y-77501549D01*
X217556654Y-77469917D01*
X217533357Y-77420765D01*
X217504414Y-77357010D01*
X217471050Y-77281571D01*
X217434491Y-77197364D01*
X217395964Y-77107308D01*
X217356694Y-77014321D01*
X217317908Y-76921320D01*
X217280830Y-76831223D01*
X217246689Y-76746948D01*
X217216708Y-76671413D01*
X217192116Y-76607534D01*
X217174136Y-76558231D01*
X217163997Y-76526421D01*
X217162366Y-76515496D01*
X217175291Y-76501561D01*
X217203589Y-76478940D01*
X217241346Y-76452333D01*
X217244515Y-76450228D01*
X217342100Y-76372114D01*
X217420786Y-76280982D01*
X217479891Y-76179745D01*
X217518732Y-76071318D01*
X217536628Y-75958614D01*
X217532897Y-75844548D01*
X217506857Y-75732034D01*
X217457825Y-75623985D01*
X217443400Y-75600345D01*
X217368369Y-75504887D01*
X217279730Y-75428232D01*
X217180549Y-75370780D01*
X217073895Y-75332929D01*
X216962836Y-75315078D01*
X216850439Y-75317625D01*
X216739773Y-75340970D01*
X216633906Y-75385510D01*
X216535905Y-75451645D01*
X216505590Y-75478487D01*
X216428438Y-75562512D01*
X216372218Y-75650966D01*
X216333653Y-75750115D01*
X216312174Y-75848303D01*
X216306872Y-75958697D01*
X216324552Y-76069640D01*
X216363419Y-76177381D01*
X216421677Y-76278169D01*
X216497531Y-76368256D01*
X216589183Y-76443892D01*
X216601228Y-76451864D01*
X216639389Y-76477974D01*
X216668399Y-76500595D01*
X216682268Y-76515039D01*
X216682469Y-76515496D01*
X216679492Y-76531121D01*
X216667689Y-76566582D01*
X216648286Y-76618962D01*
X216622512Y-76685345D01*
X216591591Y-76762814D01*
X216556751Y-76848450D01*
X216519217Y-76939337D01*
X216480217Y-77032559D01*
X216440977Y-77125197D01*
X216402724Y-77214335D01*
X216366683Y-77297055D01*
X216334083Y-77370441D01*
X216306148Y-77431575D01*
X216284105Y-77477541D01*
X216269182Y-77505421D01*
X216263172Y-77512743D01*
X216244809Y-77507041D01*
X216210448Y-77491749D01*
X216166016Y-77469599D01*
X216141583Y-77456650D01*
X216037822Y-77400547D01*
X215914213Y-77484155D01*
X215851114Y-77526987D01*
X215782030Y-77574122D01*
X215717293Y-77618503D01*
X215684866Y-77640852D01*
X215639259Y-77671477D01*
X215600640Y-77695747D01*
X215574048Y-77710587D01*
X215565410Y-77713724D01*
X215552839Y-77705261D01*
X215525016Y-77681636D01*
X215484639Y-77645302D01*
X215434405Y-77598711D01*
X215377012Y-77544317D01*
X215340714Y-77509392D01*
X215277210Y-77446996D01*
X215222327Y-77391188D01*
X215178286Y-77344354D01*
X215147305Y-77308882D01*
X215131602Y-77287161D01*
X215130095Y-77282752D01*
X215137086Y-77265985D01*
X215156406Y-77232082D01*
X215185909Y-77184476D01*
X215223455Y-77126599D01*
X215266900Y-77061884D01*
X215279255Y-77043842D01*
X215324273Y-76978267D01*
X215364660Y-76919228D01*
X215398160Y-76870042D01*
X215422514Y-76834028D01*
X215435464Y-76814502D01*
X215436715Y-76812483D01*
X215434844Y-76796922D01*
X215424913Y-76762709D01*
X215408653Y-76714355D01*
X215387795Y-76656371D01*
X215364073Y-76593270D01*
X215339216Y-76529563D01*
X215314958Y-76469761D01*
X215293029Y-76418376D01*
X215275162Y-76379919D01*
X215263087Y-76358902D01*
X215262229Y-76357894D01*
X215254846Y-76351888D01*
X215242375Y-76345948D01*
X215222080Y-76339460D01*
X215191222Y-76331809D01*
X215147066Y-76322380D01*
X215086874Y-76310559D01*
X215007907Y-76295729D01*
X214907430Y-76277277D01*
X214885675Y-76273310D01*
X214821198Y-76260853D01*
X214764989Y-76248666D01*
X214722013Y-76237926D01*
X214697240Y-76229809D01*
X214693918Y-76227916D01*
X214688444Y-76211138D01*
X214683994Y-76173645D01*
X214680572Y-76119794D01*
X214678181Y-76053944D01*
X214676823Y-75980453D01*
X214676501Y-75903680D01*
X214677219Y-75827983D01*
X214678979Y-75757720D01*
X214681784Y-75697250D01*
X214685638Y-75650930D01*
X214690543Y-75623119D01*
X214693500Y-75617427D01*
X214709963Y-75611686D01*
X214747449Y-75602345D01*
X214802225Y-75590215D01*
X214870555Y-75576107D01*
X214948706Y-75560830D01*
X214991284Y-75552823D01*
X215072071Y-75537721D01*
X215144113Y-75524040D01*
X215203889Y-75512467D01*
X215247879Y-75503687D01*
X215272561Y-75498387D01*
X215276623Y-75497212D01*
X215283489Y-75483965D01*
X215298002Y-75452057D01*
X215318229Y-75406047D01*
X215342234Y-75350492D01*
X215368082Y-75289953D01*
X215393840Y-75228986D01*
X215417573Y-75172151D01*
X215437346Y-75124006D01*
X215451224Y-75089110D01*
X215457274Y-75072021D01*
X215457386Y-75071274D01*
X215450528Y-75057793D01*
X215431302Y-75026770D01*
X215401728Y-74981289D01*
X215363827Y-74924432D01*
X215319620Y-74859283D01*
X215293921Y-74821862D01*
X215247093Y-74753247D01*
X215205501Y-74690952D01*
X215171175Y-74638129D01*
X215146143Y-74597927D01*
X215132435Y-74573500D01*
X215130456Y-74568024D01*
X215138966Y-74555278D01*
X215162493Y-74528063D01*
X215198032Y-74489428D01*
X215242577Y-74442423D01*
X215293123Y-74390095D01*
X215346664Y-74335495D01*
X215400195Y-74281670D01*
X215450711Y-74231670D01*
X215495206Y-74188543D01*
X215530675Y-74155339D01*
X215554113Y-74135106D01*
X215561954Y-74130278D01*
X215574720Y-74137067D01*
X215605256Y-74156142D01*
X215650590Y-74185561D01*
X215707756Y-74223381D01*
X215773784Y-74267661D01*
X215823590Y-74301395D01*
X216075236Y-74472512D01*
X216284999Y-74386041D01*
X216494763Y-74299570D01*
X216551611Y-73998018D01*
X216608460Y-73696466D01*
X217236115Y-73696466D01*
X217292964Y-73998018D01*
X217292964Y-73998018D01*
G37*
X217292964Y-73998018D02*
X217349812Y-74299570D01*
X217769338Y-74472512D01*
X218020984Y-74301395D01*
X218091458Y-74253750D01*
X218155163Y-74211210D01*
X218209126Y-74175715D01*
X218250373Y-74149210D01*
X218275934Y-74133636D01*
X218282895Y-74130278D01*
X218295435Y-74138914D01*
X218322231Y-74162792D01*
X218360280Y-74198859D01*
X218406579Y-74244067D01*
X218458123Y-74295364D01*
X218511909Y-74349701D01*
X218564935Y-74404028D01*
X218614195Y-74455295D01*
X218656687Y-74500451D01*
X218689407Y-74536446D01*
X218709351Y-74560230D01*
X218714119Y-74568190D01*
X218707257Y-74582865D01*
X218688020Y-74615014D01*
X218658430Y-74661492D01*
X218620510Y-74719156D01*
X218576282Y-74784860D01*
X218550654Y-74822336D01*
X218503941Y-74890768D01*
X218462432Y-74952520D01*
X218428140Y-75004519D01*
X218403080Y-75043692D01*
X218389264Y-75066965D01*
X218387188Y-75071855D01*
X218391895Y-75085755D01*
X218404723Y-75118150D01*
X218423738Y-75164485D01*
X218447003Y-75220206D01*
X218472584Y-75280758D01*
X218498545Y-75341586D01*
X218522950Y-75398136D01*
X218543863Y-75445852D01*
X218559349Y-75480181D01*
X218567472Y-75496568D01*
X218567952Y-75497212D01*
X218580707Y-75500341D01*
X218614677Y-75507321D01*
X218666340Y-75517467D01*
X218732176Y-75530092D01*
X218808664Y-75544509D01*
X218853290Y-75552823D01*
X218935021Y-75568384D01*
X219008843Y-75583192D01*
X219071021Y-75596436D01*
X219117822Y-75607305D01*
X219145509Y-75614989D01*
X219151074Y-75617427D01*
X219156526Y-75633930D01*
X219160924Y-75671200D01*
X219164272Y-75724880D01*
X219166574Y-75790612D01*
X219167832Y-75864037D01*
X219168048Y-75940796D01*
X219167227Y-76016532D01*
X219165371Y-76086886D01*
X219162482Y-76147500D01*
X219158565Y-76194016D01*
X219153622Y-76222075D01*
X219150657Y-76227916D01*
X219132934Y-76234917D01*
X219095381Y-76244927D01*
X219042964Y-76256769D01*
X218980652Y-76269267D01*
X218958900Y-76273310D01*
X218854024Y-76292520D01*
X218771180Y-76307991D01*
X218707630Y-76320337D01*
X218660637Y-76330173D01*
X218627463Y-76338114D01*
X218605371Y-76344776D01*
X218591624Y-76350773D01*
X218583484Y-76356719D01*
X218582345Y-76357894D01*
X218570977Y-76376826D01*
X218553635Y-76413669D01*
X218532050Y-76463913D01*
X218507954Y-76523046D01*
X218483079Y-76586556D01*
X218459157Y-76649932D01*
X218437919Y-76708662D01*
X218421097Y-76758235D01*
X218410422Y-76794139D01*
X218407627Y-76811862D01*
X218407860Y-76812483D01*
X218417331Y-76826970D01*
X218438818Y-76858844D01*
X218470063Y-76904789D01*
X218508807Y-76961485D01*
X218552793Y-77025617D01*
X218565319Y-77043842D01*
X218609984Y-77109914D01*
X218649288Y-77170200D01*
X218681088Y-77221235D01*
X218703245Y-77259560D01*
X218713617Y-77281711D01*
X218714119Y-77284432D01*
X218705405Y-77298736D01*
X218681325Y-77327072D01*
X218644976Y-77366396D01*
X218599453Y-77413661D01*
X218547852Y-77465823D01*
X218493267Y-77519835D01*
X218438794Y-77572653D01*
X218387529Y-77621231D01*
X218342567Y-77662523D01*
X218307004Y-77693485D01*
X218283935Y-77711070D01*
X218277554Y-77713941D01*
X218262699Y-77707178D01*
X218232286Y-77688939D01*
X218191268Y-77662297D01*
X218159709Y-77640852D01*
X218102525Y-77601503D01*
X218034806Y-77555171D01*
X217966880Y-77508913D01*
X217930361Y-77484155D01*
X217806752Y-77400547D01*
X217702991Y-77456650D01*
X217655720Y-77481228D01*
X217615523Y-77500331D01*
X217588326Y-77511227D01*
X217581402Y-77512743D01*
X217573077Y-77501549D01*
X217556654Y-77469917D01*
X217533357Y-77420765D01*
X217504414Y-77357010D01*
X217471050Y-77281571D01*
X217434491Y-77197364D01*
X217395964Y-77107308D01*
X217356694Y-77014321D01*
X217317908Y-76921320D01*
X217280830Y-76831223D01*
X217246689Y-76746948D01*
X217216708Y-76671413D01*
X217192116Y-76607534D01*
X217174136Y-76558231D01*
X217163997Y-76526421D01*
X217162366Y-76515496D01*
X217175291Y-76501561D01*
X217203589Y-76478940D01*
X217241346Y-76452333D01*
X217244515Y-76450228D01*
X217342100Y-76372114D01*
X217420786Y-76280982D01*
X217479891Y-76179745D01*
X217518732Y-76071318D01*
X217536628Y-75958614D01*
X217532897Y-75844548D01*
X217506857Y-75732034D01*
X217457825Y-75623985D01*
X217443400Y-75600345D01*
X217368369Y-75504887D01*
X217279730Y-75428232D01*
X217180549Y-75370780D01*
X217073895Y-75332929D01*
X216962836Y-75315078D01*
X216850439Y-75317625D01*
X216739773Y-75340970D01*
X216633906Y-75385510D01*
X216535905Y-75451645D01*
X216505590Y-75478487D01*
X216428438Y-75562512D01*
X216372218Y-75650966D01*
X216333653Y-75750115D01*
X216312174Y-75848303D01*
X216306872Y-75958697D01*
X216324552Y-76069640D01*
X216363419Y-76177381D01*
X216421677Y-76278169D01*
X216497531Y-76368256D01*
X216589183Y-76443892D01*
X216601228Y-76451864D01*
X216639389Y-76477974D01*
X216668399Y-76500595D01*
X216682268Y-76515039D01*
X216682469Y-76515496D01*
X216679492Y-76531121D01*
X216667689Y-76566582D01*
X216648286Y-76618962D01*
X216622512Y-76685345D01*
X216591591Y-76762814D01*
X216556751Y-76848450D01*
X216519217Y-76939337D01*
X216480217Y-77032559D01*
X216440977Y-77125197D01*
X216402724Y-77214335D01*
X216366683Y-77297055D01*
X216334083Y-77370441D01*
X216306148Y-77431575D01*
X216284105Y-77477541D01*
X216269182Y-77505421D01*
X216263172Y-77512743D01*
X216244809Y-77507041D01*
X216210448Y-77491749D01*
X216166016Y-77469599D01*
X216141583Y-77456650D01*
X216037822Y-77400547D01*
X215914213Y-77484155D01*
X215851114Y-77526987D01*
X215782030Y-77574122D01*
X215717293Y-77618503D01*
X215684866Y-77640852D01*
X215639259Y-77671477D01*
X215600640Y-77695747D01*
X215574048Y-77710587D01*
X215565410Y-77713724D01*
X215552839Y-77705261D01*
X215525016Y-77681636D01*
X215484639Y-77645302D01*
X215434405Y-77598711D01*
X215377012Y-77544317D01*
X215340714Y-77509392D01*
X215277210Y-77446996D01*
X215222327Y-77391188D01*
X215178286Y-77344354D01*
X215147305Y-77308882D01*
X215131602Y-77287161D01*
X215130095Y-77282752D01*
X215137086Y-77265985D01*
X215156406Y-77232082D01*
X215185909Y-77184476D01*
X215223455Y-77126599D01*
X215266900Y-77061884D01*
X215279255Y-77043842D01*
X215324273Y-76978267D01*
X215364660Y-76919228D01*
X215398160Y-76870042D01*
X215422514Y-76834028D01*
X215435464Y-76814502D01*
X215436715Y-76812483D01*
X215434844Y-76796922D01*
X215424913Y-76762709D01*
X215408653Y-76714355D01*
X215387795Y-76656371D01*
X215364073Y-76593270D01*
X215339216Y-76529563D01*
X215314958Y-76469761D01*
X215293029Y-76418376D01*
X215275162Y-76379919D01*
X215263087Y-76358902D01*
X215262229Y-76357894D01*
X215254846Y-76351888D01*
X215242375Y-76345948D01*
X215222080Y-76339460D01*
X215191222Y-76331809D01*
X215147066Y-76322380D01*
X215086874Y-76310559D01*
X215007907Y-76295729D01*
X214907430Y-76277277D01*
X214885675Y-76273310D01*
X214821198Y-76260853D01*
X214764989Y-76248666D01*
X214722013Y-76237926D01*
X214697240Y-76229809D01*
X214693918Y-76227916D01*
X214688444Y-76211138D01*
X214683994Y-76173645D01*
X214680572Y-76119794D01*
X214678181Y-76053944D01*
X214676823Y-75980453D01*
X214676501Y-75903680D01*
X214677219Y-75827983D01*
X214678979Y-75757720D01*
X214681784Y-75697250D01*
X214685638Y-75650930D01*
X214690543Y-75623119D01*
X214693500Y-75617427D01*
X214709963Y-75611686D01*
X214747449Y-75602345D01*
X214802225Y-75590215D01*
X214870555Y-75576107D01*
X214948706Y-75560830D01*
X214991284Y-75552823D01*
X215072071Y-75537721D01*
X215144113Y-75524040D01*
X215203889Y-75512467D01*
X215247879Y-75503687D01*
X215272561Y-75498387D01*
X215276623Y-75497212D01*
X215283489Y-75483965D01*
X215298002Y-75452057D01*
X215318229Y-75406047D01*
X215342234Y-75350492D01*
X215368082Y-75289953D01*
X215393840Y-75228986D01*
X215417573Y-75172151D01*
X215437346Y-75124006D01*
X215451224Y-75089110D01*
X215457274Y-75072021D01*
X215457386Y-75071274D01*
X215450528Y-75057793D01*
X215431302Y-75026770D01*
X215401728Y-74981289D01*
X215363827Y-74924432D01*
X215319620Y-74859283D01*
X215293921Y-74821862D01*
X215247093Y-74753247D01*
X215205501Y-74690952D01*
X215171175Y-74638129D01*
X215146143Y-74597927D01*
X215132435Y-74573500D01*
X215130456Y-74568024D01*
X215138966Y-74555278D01*
X215162493Y-74528063D01*
X215198032Y-74489428D01*
X215242577Y-74442423D01*
X215293123Y-74390095D01*
X215346664Y-74335495D01*
X215400195Y-74281670D01*
X215450711Y-74231670D01*
X215495206Y-74188543D01*
X215530675Y-74155339D01*
X215554113Y-74135106D01*
X215561954Y-74130278D01*
X215574720Y-74137067D01*
X215605256Y-74156142D01*
X215650590Y-74185561D01*
X215707756Y-74223381D01*
X215773784Y-74267661D01*
X215823590Y-74301395D01*
X216075236Y-74472512D01*
X216284999Y-74386041D01*
X216494763Y-74299570D01*
X216551611Y-73998018D01*
X216608460Y-73696466D01*
X217236115Y-73696466D01*
X217292964Y-73998018D01*
D13*
X203200000Y-74295000D02*
X203200000Y-84455000D01*
X203200000Y-84455000D02*
X213360000Y-84455000D01*
X213360000Y-84455000D02*
X213360000Y-74295000D01*
X213360000Y-74295000D02*
X203200000Y-74295000D01*
X213360000Y-57785000D02*
X213360000Y-47625000D01*
X213360000Y-47625000D02*
X203200000Y-47625000D01*
X203200000Y-47625000D02*
X203200000Y-57785000D01*
X203200000Y-57785000D02*
X213360000Y-57785000D01*
X194560000Y-71060000D02*
X176440000Y-71060000D01*
X194560000Y-64940000D02*
X176440000Y-64940000D01*
X194560000Y-71060000D02*
X194560000Y-64940000D01*
X176440000Y-71060000D02*
X176440000Y-64940000D01*
X217460000Y-68600000D02*
X199340000Y-68600000D01*
X217460000Y-63480000D02*
X199340000Y-63480000D01*
X217460000Y-68600000D02*
X217460000Y-63480000D01*
X199340000Y-68600000D02*
X199340000Y-63480000D01*
D16*
X182141905Y-57792381D02*
X182141905Y-56792381D01*
X182380000Y-56792381D01*
X182522858Y-56840000D01*
X182618096Y-56935238D01*
X182665715Y-57030476D01*
X182713334Y-57220952D01*
X182713334Y-57363810D01*
X182665715Y-57554286D01*
X182618096Y-57649524D01*
X182522858Y-57744762D01*
X182380000Y-57792381D01*
X182141905Y-57792381D01*
X183665715Y-57792381D02*
X183094286Y-57792381D01*
X183380000Y-57792381D02*
X183380000Y-56792381D01*
X183284762Y-56935238D01*
X183189524Y-57030476D01*
X183094286Y-57078095D01*
X232243334Y-54046381D02*
X231910000Y-53570190D01*
X231671905Y-54046381D02*
X231671905Y-53046381D01*
X232052858Y-53046381D01*
X232148096Y-53094000D01*
X232195715Y-53141619D01*
X232243334Y-53236857D01*
X232243334Y-53379714D01*
X232195715Y-53474952D01*
X232148096Y-53522571D01*
X232052858Y-53570190D01*
X231671905Y-53570190D01*
X233195715Y-54046381D02*
X232624286Y-54046381D01*
X232910000Y-54046381D02*
X232910000Y-53046381D01*
X232814762Y-53189238D01*
X232719524Y-53284476D01*
X232624286Y-53332095D01*
X223742381Y-59856666D02*
X223266190Y-60190000D01*
X223742381Y-60428095D02*
X222742381Y-60428095D01*
X222742381Y-60047142D01*
X222790000Y-59951904D01*
X222837619Y-59904285D01*
X222932857Y-59856666D01*
X223075714Y-59856666D01*
X223170952Y-59904285D01*
X223218571Y-59951904D01*
X223266190Y-60047142D01*
X223266190Y-60428095D01*
X222837619Y-59475714D02*
X222790000Y-59428095D01*
X222742381Y-59332857D01*
X222742381Y-59094761D01*
X222790000Y-58999523D01*
X222837619Y-58951904D01*
X222932857Y-58904285D01*
X223028095Y-58904285D01*
X223170952Y-58951904D01*
X223742381Y-59523333D01*
X223742381Y-58904285D01*
X232243334Y-78962381D02*
X231910000Y-78486190D01*
X231671905Y-78962381D02*
X231671905Y-77962381D01*
X232052858Y-77962381D01*
X232148096Y-78010000D01*
X232195715Y-78057619D01*
X232243334Y-78152857D01*
X232243334Y-78295714D01*
X232195715Y-78390952D01*
X232148096Y-78438571D01*
X232052858Y-78486190D01*
X231671905Y-78486190D01*
X232576667Y-77962381D02*
X233195715Y-77962381D01*
X232862381Y-78343333D01*
X233005239Y-78343333D01*
X233100477Y-78390952D01*
X233148096Y-78438571D01*
X233195715Y-78533810D01*
X233195715Y-78771905D01*
X233148096Y-78867143D01*
X233100477Y-78914762D01*
X233005239Y-78962381D01*
X232719524Y-78962381D01*
X232624286Y-78914762D01*
X232576667Y-78867143D01*
X223718381Y-72556666D02*
X223242190Y-72890000D01*
X223718381Y-73128095D02*
X222718381Y-73128095D01*
X222718381Y-72747142D01*
X222766000Y-72651904D01*
X222813619Y-72604285D01*
X222908857Y-72556666D01*
X223051714Y-72556666D01*
X223146952Y-72604285D01*
X223194571Y-72651904D01*
X223242190Y-72747142D01*
X223242190Y-73128095D01*
X223051714Y-71699523D02*
X223718381Y-71699523D01*
X222670762Y-71937619D02*
X223385048Y-72175714D01*
X223385048Y-71556666D01*
X224028095Y-45382381D02*
X224028095Y-46191905D01*
X224075714Y-46287143D01*
X224123333Y-46334762D01*
X224218571Y-46382381D01*
X224409048Y-46382381D01*
X224504286Y-46334762D01*
X224551905Y-46287143D01*
X224599524Y-46191905D01*
X224599524Y-45382381D01*
X225599524Y-46382381D02*
X225028095Y-46382381D01*
X225313809Y-46382381D02*
X225313809Y-45382381D01*
X225218571Y-45525238D01*
X225123333Y-45620476D01*
X225028095Y-45668095D01*
X224028095Y-88142381D02*
X224028095Y-88951905D01*
X224075714Y-89047143D01*
X224123333Y-89094762D01*
X224218571Y-89142381D01*
X224409048Y-89142381D01*
X224504286Y-89094762D01*
X224551905Y-89047143D01*
X224599524Y-88951905D01*
X224599524Y-88142381D01*
X225028095Y-88237619D02*
X225075714Y-88190000D01*
X225170952Y-88142381D01*
X225409048Y-88142381D01*
X225504286Y-88190000D01*
X225551905Y-88237619D01*
X225599524Y-88332857D01*
X225599524Y-88428095D01*
X225551905Y-88570952D01*
X224980476Y-89142381D01*
X225599524Y-89142381D01*
X239172381Y-66313333D02*
X239886667Y-66313333D01*
X240029524Y-66360953D01*
X240124762Y-66456191D01*
X240172381Y-66599048D01*
X240172381Y-66694286D01*
X239172381Y-65932381D02*
X239172381Y-65313333D01*
X239553333Y-65646667D01*
X239553333Y-65503809D01*
X239600952Y-65408571D01*
X239648571Y-65360952D01*
X239743810Y-65313333D01*
X239981905Y-65313333D01*
X240077143Y-65360952D01*
X240124762Y-65408571D01*
X240172381Y-65503809D01*
X240172381Y-65789524D01*
X240124762Y-65884762D01*
X240077143Y-65932381D01*
X171142381Y-65356666D02*
X170666190Y-65690000D01*
X171142381Y-65928095D02*
X170142381Y-65928095D01*
X170142381Y-65547142D01*
X170190000Y-65451904D01*
X170237619Y-65404285D01*
X170332857Y-65356666D01*
X170475714Y-65356666D01*
X170570952Y-65404285D01*
X170618571Y-65451904D01*
X170666190Y-65547142D01*
X170666190Y-65928095D01*
X170142381Y-64451904D02*
X170142381Y-64928095D01*
X170618571Y-64975714D01*
X170570952Y-64928095D01*
X170523333Y-64832857D01*
X170523333Y-64594761D01*
X170570952Y-64499523D01*
X170618571Y-64451904D01*
X170713810Y-64404285D01*
X170951905Y-64404285D01*
X171047143Y-64451904D01*
X171094762Y-64499523D01*
X171142381Y-64594761D01*
X171142381Y-64832857D01*
X171094762Y-64928095D01*
X171047143Y-64975714D01*
X201596667Y-78827381D02*
X201596667Y-79541667D01*
X201549047Y-79684524D01*
X201453809Y-79779762D01*
X201310952Y-79827381D01*
X201215714Y-79827381D01*
X202596667Y-79827381D02*
X202025238Y-79827381D01*
X202310952Y-79827381D02*
X202310952Y-78827381D01*
X202215714Y-78970238D01*
X202120476Y-79065476D01*
X202025238Y-79113095D01*
X201596667Y-52157381D02*
X201596667Y-52871667D01*
X201549047Y-53014524D01*
X201453809Y-53109762D01*
X201310952Y-53157381D01*
X201215714Y-53157381D01*
X202025238Y-52252619D02*
X202072857Y-52205000D01*
X202168095Y-52157381D01*
X202406191Y-52157381D01*
X202501429Y-52205000D01*
X202549048Y-52252619D01*
X202596667Y-52347857D01*
X202596667Y-52443095D01*
X202549048Y-52585952D01*
X201977619Y-53157381D01*
X202596667Y-53157381D01*
X185333334Y-72667143D02*
X185285715Y-72714762D01*
X185142858Y-72762381D01*
X185047620Y-72762381D01*
X184904762Y-72714762D01*
X184809524Y-72619524D01*
X184761905Y-72524286D01*
X184714286Y-72333810D01*
X184714286Y-72190952D01*
X184761905Y-72000476D01*
X184809524Y-71905238D01*
X184904762Y-71810000D01*
X185047620Y-71762381D01*
X185142858Y-71762381D01*
X185285715Y-71810000D01*
X185333334Y-71857619D01*
X185714286Y-71857619D02*
X185761905Y-71810000D01*
X185857143Y-71762381D01*
X186095239Y-71762381D01*
X186190477Y-71810000D01*
X186238096Y-71857619D01*
X186285715Y-71952857D01*
X186285715Y-72048095D01*
X186238096Y-72190952D01*
X185666667Y-72762381D01*
X186285715Y-72762381D01*
X184451667Y-81843571D02*
X184118333Y-81843571D01*
X184118333Y-82367381D02*
X184118333Y-81367381D01*
X184594524Y-81367381D01*
X185499286Y-82367381D02*
X184927857Y-82367381D01*
X185213571Y-82367381D02*
X185213571Y-81367381D01*
X185118333Y-81510238D01*
X185023095Y-81605476D01*
X184927857Y-81653095D01*
X208233334Y-70207143D02*
X208185715Y-70254762D01*
X208042858Y-70302381D01*
X207947620Y-70302381D01*
X207804762Y-70254762D01*
X207709524Y-70159524D01*
X207661905Y-70064286D01*
X207614286Y-69873810D01*
X207614286Y-69730952D01*
X207661905Y-69540476D01*
X207709524Y-69445238D01*
X207804762Y-69350000D01*
X207947620Y-69302381D01*
X208042858Y-69302381D01*
X208185715Y-69350000D01*
X208233334Y-69397619D01*
X209185715Y-70302381D02*
X208614286Y-70302381D01*
X208900000Y-70302381D02*
X208900000Y-69302381D01*
X208804762Y-69445238D01*
X208709524Y-69540476D01*
X208614286Y-69588095D01*
M02*
